<?xml version="1.0" encoding="utf-8" standalone="no"?>
<!DOCTYPE svg PUBLIC "-//W3C//DTD SVG 1.1//EN"
  "http://www.w3.org/Graphics/SVG/1.1/DTD/svg11.dtd">
<!-- Created with matplotlib (https://matplotlib.org/) -->
<svg height="756.780625pt" version="1.1" viewBox="0 0 1244.95625 756.780625" width="1244.95625pt" xmlns="http://www.w3.org/2000/svg" xmlns:xlink="http://www.w3.org/1999/xlink">
 <metadata>
  <rdf:RDF xmlns:cc="http://creativecommons.org/ns#" xmlns:dc="http://purl.org/dc/elements/1.1/" xmlns:rdf="http://www.w3.org/1999/02/22-rdf-syntax-ns#">
   <cc:Work>
    <dc:type rdf:resource="http://purl.org/dc/dcmitype/StillImage"/>
    <dc:date>2022-08-18T17:25:49.905828</dc:date>
    <dc:format>image/svg+xml</dc:format>
    <dc:creator>
     <cc:Agent>
      <dc:title>Matplotlib v3.3.4, https://matplotlib.org/</dc:title>
     </cc:Agent>
    </dc:creator>
   </cc:Work>
  </rdf:RDF>
 </metadata>
 <defs>
  <style type="text/css">*{stroke-linecap:butt;stroke-linejoin:round;}</style>
 </defs>
 <g id="figure_1">
  <g id="patch_1">
   <path d="M 0 756.780625 
L 1244.95625 756.780625 
L 1244.95625 0 
L 0 0 
z
" style="fill:#ffffff;"/>
  </g>
  <g id="axes_1">
   <g id="patch_2">
    <path d="M 121.75625 670.269375 
L 1237.75625 670.269375 
L 1237.75625 17.949375 
L 121.75625 17.949375 
z
" style="fill:#eaeaf2;"/>
   </g>
   <g id="matplotlib.axis_1">
    <g id="xtick_1">
     <g id="line2d_1">
      <path clip-path="url(#p6069d66fbd)" d="M 162.131018 670.269375 
L 162.131018 17.949375 
" style="fill:none;stroke:#ffffff;stroke-linecap:round;"/>
     </g>
     <g id="text_1">
      <!-- 0 -->
      <g style="fill:#262626;" transform="translate(153.223518 701.045)scale(0.28 -0.28)">
       <defs>
        <path d="M 31.78125 66.40625 
Q 24.171875 66.40625 20.328125 58.90625 
Q 16.5 51.421875 16.5 36.375 
Q 16.5 21.390625 20.328125 13.890625 
Q 24.171875 6.390625 31.78125 6.390625 
Q 39.453125 6.390625 43.28125 13.890625 
Q 47.125 21.390625 47.125 36.375 
Q 47.125 51.421875 43.28125 58.90625 
Q 39.453125 66.40625 31.78125 66.40625 
z
M 31.78125 74.21875 
Q 44.046875 74.21875 50.515625 64.515625 
Q 56.984375 54.828125 56.984375 36.375 
Q 56.984375 17.96875 50.515625 8.265625 
Q 44.046875 -1.421875 31.78125 -1.421875 
Q 19.53125 -1.421875 13.0625 8.265625 
Q 6.59375 17.96875 6.59375 36.375 
Q 6.59375 54.828125 13.0625 64.515625 
Q 19.53125 74.21875 31.78125 74.21875 
z
" id="DejaVuSans-48"/>
       </defs>
       <use xlink:href="#DejaVuSans-48"/>
      </g>
     </g>
    </g>
    <g id="xtick_2">
     <g id="line2d_2">
      <path clip-path="url(#p6069d66fbd)" d="M 352.085232 670.269375 
L 352.085232 17.949375 
" style="fill:none;stroke:#ffffff;stroke-linecap:round;"/>
     </g>
     <g id="text_2">
      <!-- 2000 -->
      <g style="fill:#262626;" transform="translate(316.455232 701.045)scale(0.28 -0.28)">
       <defs>
        <path d="M 19.1875 8.296875 
L 53.609375 8.296875 
L 53.609375 0 
L 7.328125 0 
L 7.328125 8.296875 
Q 12.9375 14.109375 22.625 23.890625 
Q 32.328125 33.6875 34.8125 36.53125 
Q 39.546875 41.84375 41.421875 45.53125 
Q 43.3125 49.21875 43.3125 52.78125 
Q 43.3125 58.59375 39.234375 62.25 
Q 35.15625 65.921875 28.609375 65.921875 
Q 23.96875 65.921875 18.8125 64.3125 
Q 13.671875 62.703125 7.8125 59.421875 
L 7.8125 69.390625 
Q 13.765625 71.78125 18.9375 73 
Q 24.125 74.21875 28.421875 74.21875 
Q 39.75 74.21875 46.484375 68.546875 
Q 53.21875 62.890625 53.21875 53.421875 
Q 53.21875 48.921875 51.53125 44.890625 
Q 49.859375 40.875 45.40625 35.40625 
Q 44.1875 33.984375 37.640625 27.21875 
Q 31.109375 20.453125 19.1875 8.296875 
z
" id="DejaVuSans-50"/>
       </defs>
       <use xlink:href="#DejaVuSans-50"/>
       <use x="63.623047" xlink:href="#DejaVuSans-48"/>
       <use x="127.246094" xlink:href="#DejaVuSans-48"/>
       <use x="190.869141" xlink:href="#DejaVuSans-48"/>
      </g>
     </g>
    </g>
    <g id="xtick_3">
     <g id="line2d_3">
      <path clip-path="url(#p6069d66fbd)" d="M 542.039445 670.269375 
L 542.039445 17.949375 
" style="fill:none;stroke:#ffffff;stroke-linecap:round;"/>
     </g>
     <g id="text_3">
      <!-- 4000 -->
      <g style="fill:#262626;" transform="translate(506.409445 701.045)scale(0.28 -0.28)">
       <defs>
        <path d="M 37.796875 64.3125 
L 12.890625 25.390625 
L 37.796875 25.390625 
z
M 35.203125 72.90625 
L 47.609375 72.90625 
L 47.609375 25.390625 
L 58.015625 25.390625 
L 58.015625 17.1875 
L 47.609375 17.1875 
L 47.609375 0 
L 37.796875 0 
L 37.796875 17.1875 
L 4.890625 17.1875 
L 4.890625 26.703125 
z
" id="DejaVuSans-52"/>
       </defs>
       <use xlink:href="#DejaVuSans-52"/>
       <use x="63.623047" xlink:href="#DejaVuSans-48"/>
       <use x="127.246094" xlink:href="#DejaVuSans-48"/>
       <use x="190.869141" xlink:href="#DejaVuSans-48"/>
      </g>
     </g>
    </g>
    <g id="xtick_4">
     <g id="line2d_4">
      <path clip-path="url(#p6069d66fbd)" d="M 731.993659 670.269375 
L 731.993659 17.949375 
" style="fill:none;stroke:#ffffff;stroke-linecap:round;"/>
     </g>
     <g id="text_4">
      <!-- 6000 -->
      <g style="fill:#262626;" transform="translate(696.363659 701.045)scale(0.28 -0.28)">
       <defs>
        <path d="M 33.015625 40.375 
Q 26.375 40.375 22.484375 35.828125 
Q 18.609375 31.296875 18.609375 23.390625 
Q 18.609375 15.53125 22.484375 10.953125 
Q 26.375 6.390625 33.015625 6.390625 
Q 39.65625 6.390625 43.53125 10.953125 
Q 47.40625 15.53125 47.40625 23.390625 
Q 47.40625 31.296875 43.53125 35.828125 
Q 39.65625 40.375 33.015625 40.375 
z
M 52.59375 71.296875 
L 52.59375 62.3125 
Q 48.875 64.0625 45.09375 64.984375 
Q 41.3125 65.921875 37.59375 65.921875 
Q 27.828125 65.921875 22.671875 59.328125 
Q 17.53125 52.734375 16.796875 39.40625 
Q 19.671875 43.65625 24.015625 45.921875 
Q 28.375 48.1875 33.59375 48.1875 
Q 44.578125 48.1875 50.953125 41.515625 
Q 57.328125 34.859375 57.328125 23.390625 
Q 57.328125 12.15625 50.6875 5.359375 
Q 44.046875 -1.421875 33.015625 -1.421875 
Q 20.359375 -1.421875 13.671875 8.265625 
Q 6.984375 17.96875 6.984375 36.375 
Q 6.984375 53.65625 15.1875 63.9375 
Q 23.390625 74.21875 37.203125 74.21875 
Q 40.921875 74.21875 44.703125 73.484375 
Q 48.484375 72.75 52.59375 71.296875 
z
" id="DejaVuSans-54"/>
       </defs>
       <use xlink:href="#DejaVuSans-54"/>
       <use x="63.623047" xlink:href="#DejaVuSans-48"/>
       <use x="127.246094" xlink:href="#DejaVuSans-48"/>
       <use x="190.869141" xlink:href="#DejaVuSans-48"/>
      </g>
     </g>
    </g>
    <g id="xtick_5">
     <g id="line2d_5">
      <path clip-path="url(#p6069d66fbd)" d="M 921.947872 670.269375 
L 921.947872 17.949375 
" style="fill:none;stroke:#ffffff;stroke-linecap:round;"/>
     </g>
     <g id="text_5">
      <!-- 8000 -->
      <g style="fill:#262626;" transform="translate(886.317872 701.045)scale(0.28 -0.28)">
       <defs>
        <path d="M 31.78125 34.625 
Q 24.75 34.625 20.71875 30.859375 
Q 16.703125 27.09375 16.703125 20.515625 
Q 16.703125 13.921875 20.71875 10.15625 
Q 24.75 6.390625 31.78125 6.390625 
Q 38.8125 6.390625 42.859375 10.171875 
Q 46.921875 13.96875 46.921875 20.515625 
Q 46.921875 27.09375 42.890625 30.859375 
Q 38.875 34.625 31.78125 34.625 
z
M 21.921875 38.8125 
Q 15.578125 40.375 12.03125 44.71875 
Q 8.5 49.078125 8.5 55.328125 
Q 8.5 64.0625 14.71875 69.140625 
Q 20.953125 74.21875 31.78125 74.21875 
Q 42.671875 74.21875 48.875 69.140625 
Q 55.078125 64.0625 55.078125 55.328125 
Q 55.078125 49.078125 51.53125 44.71875 
Q 48 40.375 41.703125 38.8125 
Q 48.828125 37.15625 52.796875 32.3125 
Q 56.78125 27.484375 56.78125 20.515625 
Q 56.78125 9.90625 50.3125 4.234375 
Q 43.84375 -1.421875 31.78125 -1.421875 
Q 19.734375 -1.421875 13.25 4.234375 
Q 6.78125 9.90625 6.78125 20.515625 
Q 6.78125 27.484375 10.78125 32.3125 
Q 14.796875 37.15625 21.921875 38.8125 
z
M 18.3125 54.390625 
Q 18.3125 48.734375 21.84375 45.5625 
Q 25.390625 42.390625 31.78125 42.390625 
Q 38.140625 42.390625 41.71875 45.5625 
Q 45.3125 48.734375 45.3125 54.390625 
Q 45.3125 60.0625 41.71875 63.234375 
Q 38.140625 66.40625 31.78125 66.40625 
Q 25.390625 66.40625 21.84375 63.234375 
Q 18.3125 60.0625 18.3125 54.390625 
z
" id="DejaVuSans-56"/>
       </defs>
       <use xlink:href="#DejaVuSans-56"/>
       <use x="63.623047" xlink:href="#DejaVuSans-48"/>
       <use x="127.246094" xlink:href="#DejaVuSans-48"/>
       <use x="190.869141" xlink:href="#DejaVuSans-48"/>
      </g>
     </g>
    </g>
    <g id="xtick_6">
     <g id="line2d_6">
      <path clip-path="url(#p6069d66fbd)" d="M 1111.902086 670.269375 
L 1111.902086 17.949375 
" style="fill:none;stroke:#ffffff;stroke-linecap:round;"/>
     </g>
     <g id="text_6">
      <!-- 10000 -->
      <g style="fill:#262626;" transform="translate(1067.364586 701.045)scale(0.28 -0.28)">
       <defs>
        <path d="M 12.40625 8.296875 
L 28.515625 8.296875 
L 28.515625 63.921875 
L 10.984375 60.40625 
L 10.984375 69.390625 
L 28.421875 72.90625 
L 38.28125 72.90625 
L 38.28125 8.296875 
L 54.390625 8.296875 
L 54.390625 0 
L 12.40625 0 
z
" id="DejaVuSans-49"/>
       </defs>
       <use xlink:href="#DejaVuSans-49"/>
       <use x="63.623047" xlink:href="#DejaVuSans-48"/>
       <use x="127.246094" xlink:href="#DejaVuSans-48"/>
       <use x="190.869141" xlink:href="#DejaVuSans-48"/>
       <use x="254.492188" xlink:href="#DejaVuSans-48"/>
      </g>
     </g>
    </g>
    <g id="text_7">
     <!-- Step (n.u.) -->
     <g style="fill:#262626;" transform="translate(574.190625 741.261875)scale(0.4 -0.4)">
      <defs>
       <path d="M 53.515625 70.515625 
L 53.515625 60.890625 
Q 47.90625 63.578125 42.921875 64.890625 
Q 37.9375 66.21875 33.296875 66.21875 
Q 25.25 66.21875 20.875 63.09375 
Q 16.5 59.96875 16.5 54.203125 
Q 16.5 49.359375 19.40625 46.890625 
Q 22.3125 44.4375 30.421875 42.921875 
L 36.375 41.703125 
Q 47.40625 39.59375 52.65625 34.296875 
Q 57.90625 29 57.90625 20.125 
Q 57.90625 9.515625 50.796875 4.046875 
Q 43.703125 -1.421875 29.984375 -1.421875 
Q 24.8125 -1.421875 18.96875 -0.25 
Q 13.140625 0.921875 6.890625 3.21875 
L 6.890625 13.375 
Q 12.890625 10.015625 18.65625 8.296875 
Q 24.421875 6.59375 29.984375 6.59375 
Q 38.421875 6.59375 43.015625 9.90625 
Q 47.609375 13.234375 47.609375 19.390625 
Q 47.609375 24.75 44.3125 27.78125 
Q 41.015625 30.8125 33.5 32.328125 
L 27.484375 33.5 
Q 16.453125 35.6875 11.515625 40.375 
Q 6.59375 45.0625 6.59375 53.421875 
Q 6.59375 63.09375 13.40625 68.65625 
Q 20.21875 74.21875 32.171875 74.21875 
Q 37.3125 74.21875 42.625 73.28125 
Q 47.953125 72.359375 53.515625 70.515625 
z
" id="DejaVuSans-83"/>
       <path d="M 18.3125 70.21875 
L 18.3125 54.6875 
L 36.8125 54.6875 
L 36.8125 47.703125 
L 18.3125 47.703125 
L 18.3125 18.015625 
Q 18.3125 11.328125 20.140625 9.421875 
Q 21.96875 7.515625 27.59375 7.515625 
L 36.8125 7.515625 
L 36.8125 0 
L 27.59375 0 
Q 17.1875 0 13.234375 3.875 
Q 9.28125 7.765625 9.28125 18.015625 
L 9.28125 47.703125 
L 2.6875 47.703125 
L 2.6875 54.6875 
L 9.28125 54.6875 
L 9.28125 70.21875 
z
" id="DejaVuSans-116"/>
       <path d="M 56.203125 29.59375 
L 56.203125 25.203125 
L 14.890625 25.203125 
Q 15.484375 15.921875 20.484375 11.0625 
Q 25.484375 6.203125 34.421875 6.203125 
Q 39.59375 6.203125 44.453125 7.46875 
Q 49.3125 8.734375 54.109375 11.28125 
L 54.109375 2.78125 
Q 49.265625 0.734375 44.1875 -0.34375 
Q 39.109375 -1.421875 33.890625 -1.421875 
Q 20.796875 -1.421875 13.15625 6.1875 
Q 5.515625 13.8125 5.515625 26.8125 
Q 5.515625 40.234375 12.765625 48.109375 
Q 20.015625 56 32.328125 56 
Q 43.359375 56 49.78125 48.890625 
Q 56.203125 41.796875 56.203125 29.59375 
z
M 47.21875 32.234375 
Q 47.125 39.59375 43.09375 43.984375 
Q 39.0625 48.390625 32.421875 48.390625 
Q 24.90625 48.390625 20.390625 44.140625 
Q 15.875 39.890625 15.1875 32.171875 
z
" id="DejaVuSans-101"/>
       <path d="M 18.109375 8.203125 
L 18.109375 -20.796875 
L 9.078125 -20.796875 
L 9.078125 54.6875 
L 18.109375 54.6875 
L 18.109375 46.390625 
Q 20.953125 51.265625 25.265625 53.625 
Q 29.59375 56 35.59375 56 
Q 45.5625 56 51.78125 48.09375 
Q 58.015625 40.1875 58.015625 27.296875 
Q 58.015625 14.40625 51.78125 6.484375 
Q 45.5625 -1.421875 35.59375 -1.421875 
Q 29.59375 -1.421875 25.265625 0.953125 
Q 20.953125 3.328125 18.109375 8.203125 
z
M 48.6875 27.296875 
Q 48.6875 37.203125 44.609375 42.84375 
Q 40.53125 48.484375 33.40625 48.484375 
Q 26.265625 48.484375 22.1875 42.84375 
Q 18.109375 37.203125 18.109375 27.296875 
Q 18.109375 17.390625 22.1875 11.75 
Q 26.265625 6.109375 33.40625 6.109375 
Q 40.53125 6.109375 44.609375 11.75 
Q 48.6875 17.390625 48.6875 27.296875 
z
" id="DejaVuSans-112"/>
       <path id="DejaVuSans-32"/>
       <path d="M 31 75.875 
Q 24.46875 64.65625 21.28125 53.65625 
Q 18.109375 42.671875 18.109375 31.390625 
Q 18.109375 20.125 21.3125 9.0625 
Q 24.515625 -2 31 -13.1875 
L 23.1875 -13.1875 
Q 15.875 -1.703125 12.234375 9.375 
Q 8.59375 20.453125 8.59375 31.390625 
Q 8.59375 42.28125 12.203125 53.3125 
Q 15.828125 64.359375 23.1875 75.875 
z
" id="DejaVuSans-40"/>
       <path d="M 54.890625 33.015625 
L 54.890625 0 
L 45.90625 0 
L 45.90625 32.71875 
Q 45.90625 40.484375 42.875 44.328125 
Q 39.84375 48.1875 33.796875 48.1875 
Q 26.515625 48.1875 22.3125 43.546875 
Q 18.109375 38.921875 18.109375 30.90625 
L 18.109375 0 
L 9.078125 0 
L 9.078125 54.6875 
L 18.109375 54.6875 
L 18.109375 46.1875 
Q 21.34375 51.125 25.703125 53.5625 
Q 30.078125 56 35.796875 56 
Q 45.21875 56 50.046875 50.171875 
Q 54.890625 44.34375 54.890625 33.015625 
z
" id="DejaVuSans-110"/>
       <path d="M 10.6875 12.40625 
L 21 12.40625 
L 21 0 
L 10.6875 0 
z
" id="DejaVuSans-46"/>
       <path d="M 8.5 21.578125 
L 8.5 54.6875 
L 17.484375 54.6875 
L 17.484375 21.921875 
Q 17.484375 14.15625 20.5 10.265625 
Q 23.53125 6.390625 29.59375 6.390625 
Q 36.859375 6.390625 41.078125 11.03125 
Q 45.3125 15.671875 45.3125 23.6875 
L 45.3125 54.6875 
L 54.296875 54.6875 
L 54.296875 0 
L 45.3125 0 
L 45.3125 8.40625 
Q 42.046875 3.421875 37.71875 1 
Q 33.40625 -1.421875 27.6875 -1.421875 
Q 18.265625 -1.421875 13.375 4.4375 
Q 8.5 10.296875 8.5 21.578125 
z
M 31.109375 56 
z
" id="DejaVuSans-117"/>
       <path d="M 8.015625 75.875 
L 15.828125 75.875 
Q 23.140625 64.359375 26.78125 53.3125 
Q 30.421875 42.28125 30.421875 31.390625 
Q 30.421875 20.453125 26.78125 9.375 
Q 23.140625 -1.703125 15.828125 -13.1875 
L 8.015625 -13.1875 
Q 14.5 -2 17.703125 9.0625 
Q 20.90625 20.125 20.90625 31.390625 
Q 20.90625 42.671875 17.703125 53.65625 
Q 14.5 64.65625 8.015625 75.875 
z
" id="DejaVuSans-41"/>
      </defs>
      <use xlink:href="#DejaVuSans-83"/>
      <use x="63.476562" xlink:href="#DejaVuSans-116"/>
      <use x="102.685547" xlink:href="#DejaVuSans-101"/>
      <use x="164.208984" xlink:href="#DejaVuSans-112"/>
      <use x="227.685547" xlink:href="#DejaVuSans-32"/>
      <use x="259.472656" xlink:href="#DejaVuSans-40"/>
      <use x="298.486328" xlink:href="#DejaVuSans-110"/>
      <use x="361.865234" xlink:href="#DejaVuSans-46"/>
      <use x="393.652344" xlink:href="#DejaVuSans-117"/>
      <use x="457.03125" xlink:href="#DejaVuSans-46"/>
      <use x="488.818359" xlink:href="#DejaVuSans-41"/>
     </g>
    </g>
   </g>
   <g id="matplotlib.axis_2">
    <g id="ytick_1">
     <g id="line2d_7">
      <path clip-path="url(#p6069d66fbd)" d="M 121.75625 635.858059 
L 1237.75625 635.858059 
" style="fill:none;stroke:#ffffff;stroke-linecap:round;"/>
     </g>
     <g id="text_8">
      <!-- 0.50 -->
      <g style="fill:#262626;" transform="translate(49.9125 646.495872)scale(0.28 -0.28)">
       <defs>
        <path d="M 10.796875 72.90625 
L 49.515625 72.90625 
L 49.515625 64.59375 
L 19.828125 64.59375 
L 19.828125 46.734375 
Q 21.96875 47.46875 24.109375 47.828125 
Q 26.265625 48.1875 28.421875 48.1875 
Q 40.625 48.1875 47.75 41.5 
Q 54.890625 34.8125 54.890625 23.390625 
Q 54.890625 11.625 47.5625 5.09375 
Q 40.234375 -1.421875 26.90625 -1.421875 
Q 22.3125 -1.421875 17.546875 -0.640625 
Q 12.796875 0.140625 7.71875 1.703125 
L 7.71875 11.625 
Q 12.109375 9.234375 16.796875 8.0625 
Q 21.484375 6.890625 26.703125 6.890625 
Q 35.15625 6.890625 40.078125 11.328125 
Q 45.015625 15.765625 45.015625 23.390625 
Q 45.015625 31 40.078125 35.4375 
Q 35.15625 39.890625 26.703125 39.890625 
Q 22.75 39.890625 18.8125 39.015625 
Q 14.890625 38.140625 10.796875 36.28125 
z
" id="DejaVuSans-53"/>
       </defs>
       <use xlink:href="#DejaVuSans-48"/>
       <use x="63.623047" xlink:href="#DejaVuSans-46"/>
       <use x="95.410156" xlink:href="#DejaVuSans-53"/>
       <use x="159.033203" xlink:href="#DejaVuSans-48"/>
      </g>
     </g>
    </g>
    <g id="ytick_2">
     <g id="line2d_8">
      <path clip-path="url(#p6069d66fbd)" d="M 121.75625 552.550942 
L 1237.75625 552.550942 
" style="fill:none;stroke:#ffffff;stroke-linecap:round;"/>
     </g>
     <g id="text_9">
      <!-- 0.55 -->
      <g style="fill:#262626;" transform="translate(49.9125 563.188754)scale(0.28 -0.28)">
       <use xlink:href="#DejaVuSans-48"/>
       <use x="63.623047" xlink:href="#DejaVuSans-46"/>
       <use x="95.410156" xlink:href="#DejaVuSans-53"/>
       <use x="159.033203" xlink:href="#DejaVuSans-53"/>
      </g>
     </g>
    </g>
    <g id="ytick_3">
     <g id="line2d_9">
      <path clip-path="url(#p6069d66fbd)" d="M 121.75625 469.243824 
L 1237.75625 469.243824 
" style="fill:none;stroke:#ffffff;stroke-linecap:round;"/>
     </g>
     <g id="text_10">
      <!-- 0.60 -->
      <g style="fill:#262626;" transform="translate(49.9125 479.881636)scale(0.28 -0.28)">
       <use xlink:href="#DejaVuSans-48"/>
       <use x="63.623047" xlink:href="#DejaVuSans-46"/>
       <use x="95.410156" xlink:href="#DejaVuSans-54"/>
       <use x="159.033203" xlink:href="#DejaVuSans-48"/>
      </g>
     </g>
    </g>
    <g id="ytick_4">
     <g id="line2d_10">
      <path clip-path="url(#p6069d66fbd)" d="M 121.75625 385.936706 
L 1237.75625 385.936706 
" style="fill:none;stroke:#ffffff;stroke-linecap:round;"/>
     </g>
     <g id="text_11">
      <!-- 0.65 -->
      <g style="fill:#262626;" transform="translate(49.9125 396.574519)scale(0.28 -0.28)">
       <use xlink:href="#DejaVuSans-48"/>
       <use x="63.623047" xlink:href="#DejaVuSans-46"/>
       <use x="95.410156" xlink:href="#DejaVuSans-54"/>
       <use x="159.033203" xlink:href="#DejaVuSans-53"/>
      </g>
     </g>
    </g>
    <g id="ytick_5">
     <g id="line2d_11">
      <path clip-path="url(#p6069d66fbd)" d="M 121.75625 302.629589 
L 1237.75625 302.629589 
" style="fill:none;stroke:#ffffff;stroke-linecap:round;"/>
     </g>
     <g id="text_12">
      <!-- 0.70 -->
      <g style="fill:#262626;" transform="translate(49.9125 313.267401)scale(0.28 -0.28)">
       <defs>
        <path d="M 8.203125 72.90625 
L 55.078125 72.90625 
L 55.078125 68.703125 
L 28.609375 0 
L 18.3125 0 
L 43.21875 64.59375 
L 8.203125 64.59375 
z
" id="DejaVuSans-55"/>
       </defs>
       <use xlink:href="#DejaVuSans-48"/>
       <use x="63.623047" xlink:href="#DejaVuSans-46"/>
       <use x="95.410156" xlink:href="#DejaVuSans-55"/>
       <use x="159.033203" xlink:href="#DejaVuSans-48"/>
      </g>
     </g>
    </g>
    <g id="ytick_6">
     <g id="line2d_12">
      <path clip-path="url(#p6069d66fbd)" d="M 121.75625 219.322471 
L 1237.75625 219.322471 
" style="fill:none;stroke:#ffffff;stroke-linecap:round;"/>
     </g>
     <g id="text_13">
      <!-- 0.75 -->
      <g style="fill:#262626;" transform="translate(49.9125 229.960284)scale(0.28 -0.28)">
       <use xlink:href="#DejaVuSans-48"/>
       <use x="63.623047" xlink:href="#DejaVuSans-46"/>
       <use x="95.410156" xlink:href="#DejaVuSans-55"/>
       <use x="159.033203" xlink:href="#DejaVuSans-53"/>
      </g>
     </g>
    </g>
    <g id="ytick_7">
     <g id="line2d_13">
      <path clip-path="url(#p6069d66fbd)" d="M 121.75625 136.015353 
L 1237.75625 136.015353 
" style="fill:none;stroke:#ffffff;stroke-linecap:round;"/>
     </g>
     <g id="text_14">
      <!-- 0.80 -->
      <g style="fill:#262626;" transform="translate(49.9125 146.653166)scale(0.28 -0.28)">
       <use xlink:href="#DejaVuSans-48"/>
       <use x="63.623047" xlink:href="#DejaVuSans-46"/>
       <use x="95.410156" xlink:href="#DejaVuSans-56"/>
       <use x="159.033203" xlink:href="#DejaVuSans-48"/>
      </g>
     </g>
    </g>
    <g id="ytick_8">
     <g id="line2d_14">
      <path clip-path="url(#p6069d66fbd)" d="M 121.75625 52.708236 
L 1237.75625 52.708236 
" style="fill:none;stroke:#ffffff;stroke-linecap:round;"/>
     </g>
     <g id="text_15">
      <!-- 0.85 -->
      <g style="fill:#262626;" transform="translate(49.9125 63.346048)scale(0.28 -0.28)">
       <use xlink:href="#DejaVuSans-48"/>
       <use x="63.623047" xlink:href="#DejaVuSans-46"/>
       <use x="95.410156" xlink:href="#DejaVuSans-56"/>
       <use x="159.033203" xlink:href="#DejaVuSans-53"/>
      </g>
     </g>
    </g>
    <g id="text_16">
     <!-- Murmur Weighted Accuracy (n.u.) -->
     <g style="fill:#262626;" transform="translate(37.59375 681.01875)rotate(-90)scale(0.4 -0.4)">
      <defs>
       <path d="M 9.8125 72.90625 
L 24.515625 72.90625 
L 43.109375 23.296875 
L 61.8125 72.90625 
L 76.515625 72.90625 
L 76.515625 0 
L 66.890625 0 
L 66.890625 64.015625 
L 48.09375 14.015625 
L 38.1875 14.015625 
L 19.390625 64.015625 
L 19.390625 0 
L 9.8125 0 
z
" id="DejaVuSans-77"/>
       <path d="M 41.109375 46.296875 
Q 39.59375 47.171875 37.8125 47.578125 
Q 36.03125 48 33.890625 48 
Q 26.265625 48 22.1875 43.046875 
Q 18.109375 38.09375 18.109375 28.8125 
L 18.109375 0 
L 9.078125 0 
L 9.078125 54.6875 
L 18.109375 54.6875 
L 18.109375 46.1875 
Q 20.953125 51.171875 25.484375 53.578125 
Q 30.03125 56 36.53125 56 
Q 37.453125 56 38.578125 55.875 
Q 39.703125 55.765625 41.0625 55.515625 
z
" id="DejaVuSans-114"/>
       <path d="M 52 44.1875 
Q 55.375 50.25 60.0625 53.125 
Q 64.75 56 71.09375 56 
Q 79.640625 56 84.28125 50.015625 
Q 88.921875 44.046875 88.921875 33.015625 
L 88.921875 0 
L 79.890625 0 
L 79.890625 32.71875 
Q 79.890625 40.578125 77.09375 44.375 
Q 74.3125 48.1875 68.609375 48.1875 
Q 61.625 48.1875 57.5625 43.546875 
Q 53.515625 38.921875 53.515625 30.90625 
L 53.515625 0 
L 44.484375 0 
L 44.484375 32.71875 
Q 44.484375 40.625 41.703125 44.40625 
Q 38.921875 48.1875 33.109375 48.1875 
Q 26.21875 48.1875 22.15625 43.53125 
Q 18.109375 38.875 18.109375 30.90625 
L 18.109375 0 
L 9.078125 0 
L 9.078125 54.6875 
L 18.109375 54.6875 
L 18.109375 46.1875 
Q 21.1875 51.21875 25.484375 53.609375 
Q 29.78125 56 35.6875 56 
Q 41.65625 56 45.828125 52.96875 
Q 50 49.953125 52 44.1875 
z
" id="DejaVuSans-109"/>
       <path d="M 3.328125 72.90625 
L 13.28125 72.90625 
L 28.609375 11.28125 
L 43.890625 72.90625 
L 54.984375 72.90625 
L 70.3125 11.28125 
L 85.59375 72.90625 
L 95.609375 72.90625 
L 77.296875 0 
L 64.890625 0 
L 49.515625 63.28125 
L 33.984375 0 
L 21.578125 0 
z
" id="DejaVuSans-87"/>
       <path d="M 9.421875 54.6875 
L 18.40625 54.6875 
L 18.40625 0 
L 9.421875 0 
z
M 9.421875 75.984375 
L 18.40625 75.984375 
L 18.40625 64.59375 
L 9.421875 64.59375 
z
" id="DejaVuSans-105"/>
       <path d="M 45.40625 27.984375 
Q 45.40625 37.75 41.375 43.109375 
Q 37.359375 48.484375 30.078125 48.484375 
Q 22.859375 48.484375 18.828125 43.109375 
Q 14.796875 37.75 14.796875 27.984375 
Q 14.796875 18.265625 18.828125 12.890625 
Q 22.859375 7.515625 30.078125 7.515625 
Q 37.359375 7.515625 41.375 12.890625 
Q 45.40625 18.265625 45.40625 27.984375 
z
M 54.390625 6.78125 
Q 54.390625 -7.171875 48.1875 -13.984375 
Q 42 -20.796875 29.203125 -20.796875 
Q 24.46875 -20.796875 20.265625 -20.09375 
Q 16.0625 -19.390625 12.109375 -17.921875 
L 12.109375 -9.1875 
Q 16.0625 -11.328125 19.921875 -12.34375 
Q 23.78125 -13.375 27.78125 -13.375 
Q 36.625 -13.375 41.015625 -8.765625 
Q 45.40625 -4.15625 45.40625 5.171875 
L 45.40625 9.625 
Q 42.625 4.78125 38.28125 2.390625 
Q 33.9375 0 27.875 0 
Q 17.828125 0 11.671875 7.65625 
Q 5.515625 15.328125 5.515625 27.984375 
Q 5.515625 40.671875 11.671875 48.328125 
Q 17.828125 56 27.875 56 
Q 33.9375 56 38.28125 53.609375 
Q 42.625 51.21875 45.40625 46.390625 
L 45.40625 54.6875 
L 54.390625 54.6875 
z
" id="DejaVuSans-103"/>
       <path d="M 54.890625 33.015625 
L 54.890625 0 
L 45.90625 0 
L 45.90625 32.71875 
Q 45.90625 40.484375 42.875 44.328125 
Q 39.84375 48.1875 33.796875 48.1875 
Q 26.515625 48.1875 22.3125 43.546875 
Q 18.109375 38.921875 18.109375 30.90625 
L 18.109375 0 
L 9.078125 0 
L 9.078125 75.984375 
L 18.109375 75.984375 
L 18.109375 46.1875 
Q 21.34375 51.125 25.703125 53.5625 
Q 30.078125 56 35.796875 56 
Q 45.21875 56 50.046875 50.171875 
Q 54.890625 44.34375 54.890625 33.015625 
z
" id="DejaVuSans-104"/>
       <path d="M 45.40625 46.390625 
L 45.40625 75.984375 
L 54.390625 75.984375 
L 54.390625 0 
L 45.40625 0 
L 45.40625 8.203125 
Q 42.578125 3.328125 38.25 0.953125 
Q 33.9375 -1.421875 27.875 -1.421875 
Q 17.96875 -1.421875 11.734375 6.484375 
Q 5.515625 14.40625 5.515625 27.296875 
Q 5.515625 40.1875 11.734375 48.09375 
Q 17.96875 56 27.875 56 
Q 33.9375 56 38.25 53.625 
Q 42.578125 51.265625 45.40625 46.390625 
z
M 14.796875 27.296875 
Q 14.796875 17.390625 18.875 11.75 
Q 22.953125 6.109375 30.078125 6.109375 
Q 37.203125 6.109375 41.296875 11.75 
Q 45.40625 17.390625 45.40625 27.296875 
Q 45.40625 37.203125 41.296875 42.84375 
Q 37.203125 48.484375 30.078125 48.484375 
Q 22.953125 48.484375 18.875 42.84375 
Q 14.796875 37.203125 14.796875 27.296875 
z
" id="DejaVuSans-100"/>
       <path d="M 34.1875 63.1875 
L 20.796875 26.90625 
L 47.609375 26.90625 
z
M 28.609375 72.90625 
L 39.796875 72.90625 
L 67.578125 0 
L 57.328125 0 
L 50.6875 18.703125 
L 17.828125 18.703125 
L 11.1875 0 
L 0.78125 0 
z
" id="DejaVuSans-65"/>
       <path d="M 48.78125 52.59375 
L 48.78125 44.1875 
Q 44.96875 46.296875 41.140625 47.34375 
Q 37.3125 48.390625 33.40625 48.390625 
Q 24.65625 48.390625 19.8125 42.84375 
Q 14.984375 37.3125 14.984375 27.296875 
Q 14.984375 17.28125 19.8125 11.734375 
Q 24.65625 6.203125 33.40625 6.203125 
Q 37.3125 6.203125 41.140625 7.25 
Q 44.96875 8.296875 48.78125 10.40625 
L 48.78125 2.09375 
Q 45.015625 0.34375 40.984375 -0.53125 
Q 36.96875 -1.421875 32.421875 -1.421875 
Q 20.0625 -1.421875 12.78125 6.34375 
Q 5.515625 14.109375 5.515625 27.296875 
Q 5.515625 40.671875 12.859375 48.328125 
Q 20.21875 56 33.015625 56 
Q 37.15625 56 41.109375 55.140625 
Q 45.0625 54.296875 48.78125 52.59375 
z
" id="DejaVuSans-99"/>
       <path d="M 34.28125 27.484375 
Q 23.390625 27.484375 19.1875 25 
Q 14.984375 22.515625 14.984375 16.5 
Q 14.984375 11.71875 18.140625 8.90625 
Q 21.296875 6.109375 26.703125 6.109375 
Q 34.1875 6.109375 38.703125 11.40625 
Q 43.21875 16.703125 43.21875 25.484375 
L 43.21875 27.484375 
z
M 52.203125 31.203125 
L 52.203125 0 
L 43.21875 0 
L 43.21875 8.296875 
Q 40.140625 3.328125 35.546875 0.953125 
Q 30.953125 -1.421875 24.3125 -1.421875 
Q 15.921875 -1.421875 10.953125 3.296875 
Q 6 8.015625 6 15.921875 
Q 6 25.140625 12.171875 29.828125 
Q 18.359375 34.515625 30.609375 34.515625 
L 43.21875 34.515625 
L 43.21875 35.40625 
Q 43.21875 41.609375 39.140625 45 
Q 35.0625 48.390625 27.6875 48.390625 
Q 23 48.390625 18.546875 47.265625 
Q 14.109375 46.140625 10.015625 43.890625 
L 10.015625 52.203125 
Q 14.9375 54.109375 19.578125 55.046875 
Q 24.21875 56 28.609375 56 
Q 40.484375 56 46.34375 49.84375 
Q 52.203125 43.703125 52.203125 31.203125 
z
" id="DejaVuSans-97"/>
       <path d="M 32.171875 -5.078125 
Q 28.375 -14.84375 24.75 -17.8125 
Q 21.140625 -20.796875 15.09375 -20.796875 
L 7.90625 -20.796875 
L 7.90625 -13.28125 
L 13.1875 -13.28125 
Q 16.890625 -13.28125 18.9375 -11.515625 
Q 21 -9.765625 23.484375 -3.21875 
L 25.09375 0.875 
L 2.984375 54.6875 
L 12.5 54.6875 
L 29.59375 11.921875 
L 46.6875 54.6875 
L 56.203125 54.6875 
z
" id="DejaVuSans-121"/>
      </defs>
      <use xlink:href="#DejaVuSans-77"/>
      <use x="86.279297" xlink:href="#DejaVuSans-117"/>
      <use x="149.658203" xlink:href="#DejaVuSans-114"/>
      <use x="189.021484" xlink:href="#DejaVuSans-109"/>
      <use x="286.433594" xlink:href="#DejaVuSans-117"/>
      <use x="349.8125" xlink:href="#DejaVuSans-114"/>
      <use x="390.925781" xlink:href="#DejaVuSans-32"/>
      <use x="422.712891" xlink:href="#DejaVuSans-87"/>
      <use x="515.714844" xlink:href="#DejaVuSans-101"/>
      <use x="577.238281" xlink:href="#DejaVuSans-105"/>
      <use x="605.021484" xlink:href="#DejaVuSans-103"/>
      <use x="668.498047" xlink:href="#DejaVuSans-104"/>
      <use x="731.876953" xlink:href="#DejaVuSans-116"/>
      <use x="771.085938" xlink:href="#DejaVuSans-101"/>
      <use x="832.609375" xlink:href="#DejaVuSans-100"/>
      <use x="896.085938" xlink:href="#DejaVuSans-32"/>
      <use x="927.873047" xlink:href="#DejaVuSans-65"/>
      <use x="994.53125" xlink:href="#DejaVuSans-99"/>
      <use x="1049.511719" xlink:href="#DejaVuSans-99"/>
      <use x="1104.492188" xlink:href="#DejaVuSans-117"/>
      <use x="1167.871094" xlink:href="#DejaVuSans-114"/>
      <use x="1208.984375" xlink:href="#DejaVuSans-97"/>
      <use x="1270.263672" xlink:href="#DejaVuSans-99"/>
      <use x="1325.244141" xlink:href="#DejaVuSans-121"/>
      <use x="1384.423828" xlink:href="#DejaVuSans-32"/>
      <use x="1416.210938" xlink:href="#DejaVuSans-40"/>
      <use x="1455.224609" xlink:href="#DejaVuSans-110"/>
      <use x="1518.603516" xlink:href="#DejaVuSans-46"/>
      <use x="1550.390625" xlink:href="#DejaVuSans-117"/>
      <use x="1613.769531" xlink:href="#DejaVuSans-46"/>
      <use x="1645.556641" xlink:href="#DejaVuSans-41"/>
     </g>
    </g>
   </g>
   <g id="line2d_15">
    <path clip-path="url(#p6069d66fbd)" d="M 172.483523 636.616086 
L 193.188532 636.616086 
L 213.893541 492.894252 
L 234.598551 341.094888 
L 255.30356 255.155781 
L 276.008569 283.525699 
L 296.713578 190.040838 
L 317.418588 183.190107 
L 338.123597 202.069871 
L 358.828606 191.765508 
L 379.533615 192.664738 
L 400.238625 127.252399 
L 420.943634 107.706337 
L 441.648643 127.716142 
L 462.353653 124.125373 
L 483.058662 110.097851 
L 503.763671 114.022977 
L 524.46868 87.783214 
L 545.17369 103.806591 
L 565.878699 91.139802 
L 586.583708 108.532206 
L 607.288718 115.521177 
L 627.993727 99.965854 
L 648.698736 88.059157 
L 669.403745 82.438619 
L 690.108755 100.184558 
L 710.813764 77.950013 
L 731.518773 73.826673 
L 752.223782 47.600284 
L 772.928792 57.928116 
L 793.633801 66.254937 
L 814.33881 72.284699 
L 835.04382 66.0868 
L 855.748829 64.704547 
L 876.453838 71.120137 
L 897.158847 67.244253 
L 917.863857 61.240134 
L 938.568866 58.108377 
L 959.273875 67.290105 
L 979.978885 62.590767 
L 1000.683894 58.958457 
L 1021.388903 70.749525 
" style="fill:none;stroke:#dd8452;stroke-linecap:round;stroke-width:4;"/>
    <defs>
     <path d="M -0 7 
L 7 -7 
L -7 -7 
z
" id="m524a09a09e" style="stroke:#dd8452;stroke-linejoin:miter;"/>
    </defs>
    <g clip-path="url(#p6069d66fbd)">
     <use style="fill:#dd8452;stroke:#dd8452;stroke-linejoin:miter;" x="172.483523" xlink:href="#m524a09a09e" y="636.616086"/>
     <use style="fill:#dd8452;stroke:#dd8452;stroke-linejoin:miter;" x="193.188532" xlink:href="#m524a09a09e" y="636.616086"/>
     <use style="fill:#dd8452;stroke:#dd8452;stroke-linejoin:miter;" x="213.893541" xlink:href="#m524a09a09e" y="492.894252"/>
     <use style="fill:#dd8452;stroke:#dd8452;stroke-linejoin:miter;" x="234.598551" xlink:href="#m524a09a09e" y="341.094888"/>
     <use style="fill:#dd8452;stroke:#dd8452;stroke-linejoin:miter;" x="255.30356" xlink:href="#m524a09a09e" y="255.155781"/>
     <use style="fill:#dd8452;stroke:#dd8452;stroke-linejoin:miter;" x="276.008569" xlink:href="#m524a09a09e" y="283.525699"/>
     <use style="fill:#dd8452;stroke:#dd8452;stroke-linejoin:miter;" x="296.713578" xlink:href="#m524a09a09e" y="190.040838"/>
     <use style="fill:#dd8452;stroke:#dd8452;stroke-linejoin:miter;" x="317.418588" xlink:href="#m524a09a09e" y="183.190107"/>
     <use style="fill:#dd8452;stroke:#dd8452;stroke-linejoin:miter;" x="338.123597" xlink:href="#m524a09a09e" y="202.069871"/>
     <use style="fill:#dd8452;stroke:#dd8452;stroke-linejoin:miter;" x="358.828606" xlink:href="#m524a09a09e" y="191.765508"/>
     <use style="fill:#dd8452;stroke:#dd8452;stroke-linejoin:miter;" x="379.533615" xlink:href="#m524a09a09e" y="192.664738"/>
     <use style="fill:#dd8452;stroke:#dd8452;stroke-linejoin:miter;" x="400.238625" xlink:href="#m524a09a09e" y="127.252399"/>
     <use style="fill:#dd8452;stroke:#dd8452;stroke-linejoin:miter;" x="420.943634" xlink:href="#m524a09a09e" y="107.706337"/>
     <use style="fill:#dd8452;stroke:#dd8452;stroke-linejoin:miter;" x="441.648643" xlink:href="#m524a09a09e" y="127.716142"/>
     <use style="fill:#dd8452;stroke:#dd8452;stroke-linejoin:miter;" x="462.353653" xlink:href="#m524a09a09e" y="124.125373"/>
     <use style="fill:#dd8452;stroke:#dd8452;stroke-linejoin:miter;" x="483.058662" xlink:href="#m524a09a09e" y="110.097851"/>
     <use style="fill:#dd8452;stroke:#dd8452;stroke-linejoin:miter;" x="503.763671" xlink:href="#m524a09a09e" y="114.022977"/>
     <use style="fill:#dd8452;stroke:#dd8452;stroke-linejoin:miter;" x="524.46868" xlink:href="#m524a09a09e" y="87.783214"/>
     <use style="fill:#dd8452;stroke:#dd8452;stroke-linejoin:miter;" x="545.17369" xlink:href="#m524a09a09e" y="103.806591"/>
     <use style="fill:#dd8452;stroke:#dd8452;stroke-linejoin:miter;" x="565.878699" xlink:href="#m524a09a09e" y="91.139802"/>
     <use style="fill:#dd8452;stroke:#dd8452;stroke-linejoin:miter;" x="586.583708" xlink:href="#m524a09a09e" y="108.532206"/>
     <use style="fill:#dd8452;stroke:#dd8452;stroke-linejoin:miter;" x="607.288718" xlink:href="#m524a09a09e" y="115.521177"/>
     <use style="fill:#dd8452;stroke:#dd8452;stroke-linejoin:miter;" x="627.993727" xlink:href="#m524a09a09e" y="99.965854"/>
     <use style="fill:#dd8452;stroke:#dd8452;stroke-linejoin:miter;" x="648.698736" xlink:href="#m524a09a09e" y="88.059157"/>
     <use style="fill:#dd8452;stroke:#dd8452;stroke-linejoin:miter;" x="669.403745" xlink:href="#m524a09a09e" y="82.438619"/>
     <use style="fill:#dd8452;stroke:#dd8452;stroke-linejoin:miter;" x="690.108755" xlink:href="#m524a09a09e" y="100.184558"/>
     <use style="fill:#dd8452;stroke:#dd8452;stroke-linejoin:miter;" x="710.813764" xlink:href="#m524a09a09e" y="77.950013"/>
     <use style="fill:#dd8452;stroke:#dd8452;stroke-linejoin:miter;" x="731.518773" xlink:href="#m524a09a09e" y="73.826673"/>
     <use style="fill:#dd8452;stroke:#dd8452;stroke-linejoin:miter;" x="752.223782" xlink:href="#m524a09a09e" y="47.600284"/>
     <use style="fill:#dd8452;stroke:#dd8452;stroke-linejoin:miter;" x="772.928792" xlink:href="#m524a09a09e" y="57.928116"/>
     <use style="fill:#dd8452;stroke:#dd8452;stroke-linejoin:miter;" x="793.633801" xlink:href="#m524a09a09e" y="66.254937"/>
     <use style="fill:#dd8452;stroke:#dd8452;stroke-linejoin:miter;" x="814.33881" xlink:href="#m524a09a09e" y="72.284699"/>
     <use style="fill:#dd8452;stroke:#dd8452;stroke-linejoin:miter;" x="835.04382" xlink:href="#m524a09a09e" y="66.0868"/>
     <use style="fill:#dd8452;stroke:#dd8452;stroke-linejoin:miter;" x="855.748829" xlink:href="#m524a09a09e" y="64.704547"/>
     <use style="fill:#dd8452;stroke:#dd8452;stroke-linejoin:miter;" x="876.453838" xlink:href="#m524a09a09e" y="71.120137"/>
     <use style="fill:#dd8452;stroke:#dd8452;stroke-linejoin:miter;" x="897.158847" xlink:href="#m524a09a09e" y="67.244253"/>
     <use style="fill:#dd8452;stroke:#dd8452;stroke-linejoin:miter;" x="917.863857" xlink:href="#m524a09a09e" y="61.240134"/>
     <use style="fill:#dd8452;stroke:#dd8452;stroke-linejoin:miter;" x="938.568866" xlink:href="#m524a09a09e" y="58.108377"/>
     <use style="fill:#dd8452;stroke:#dd8452;stroke-linejoin:miter;" x="959.273875" xlink:href="#m524a09a09e" y="67.290105"/>
     <use style="fill:#dd8452;stroke:#dd8452;stroke-linejoin:miter;" x="979.978885" xlink:href="#m524a09a09e" y="62.590767"/>
     <use style="fill:#dd8452;stroke:#dd8452;stroke-linejoin:miter;" x="1000.683894" xlink:href="#m524a09a09e" y="58.958457"/>
     <use style="fill:#dd8452;stroke:#dd8452;stroke-linejoin:miter;" x="1021.388903" xlink:href="#m524a09a09e" y="70.749525"/>
    </g>
   </g>
   <g id="line2d_16">
    <path clip-path="url(#p6069d66fbd)" d="M 182.836027 636.616086 
L 203.541037 636.616086 
L 224.246046 631.764716 
L 244.951055 450.396252 
L 265.656064 259.816977 
L 286.361074 218.739962 
L 307.066083 136.882048 
L 327.771092 137.249124 
L 348.476102 130.468069 
L 369.181111 136.03165 
L 389.88612 81.637363 
L 410.591129 133.249274 
L 431.296139 153.770109 
L 452.001148 109.854374 
L 472.706157 85.79738 
L 493.411167 97.997753 
L 514.116176 97.538517 
L 534.821185 91.30898 
L 555.526194 117.568145 
L 576.231204 95.730108 
L 596.936213 93.204922 
L 617.641222 131.470667 
L 638.346231 120.625633 
L 659.051241 120.845085 
L 679.75625 98.486502 
L 700.461259 101.23171 
L 721.166269 120.291338 
L 741.871278 141.221776 
L 762.576287 126.92557 
L 783.281296 148.46147 
L 803.986306 150.028897 
L 824.691315 163.085449 
L 845.396324 150.078307 
L 866.101333 155.583613 
L 886.806343 156.716533 
L 907.511352 152.879436 
L 928.216361 153.923766 
L 948.921371 155.633851 
L 969.62638 163.0414 
" style="fill:none;stroke:#8172b3;stroke-linecap:round;stroke-width:4;"/>
    <defs>
     <path d="M -2.302578 -6.313433 
Q -0.451832 -6.313433 0.530529 -3.982361 
Q 0.769335 -3.303935 0.769335 -3.100407 
Q 0.818182 -3.100407 0.929444 -3.694708 
Q 1.87924 -6.313433 3.871099 -6.313433 
Q 5.643148 -6.313433 6.679783 -4.525102 
Q 7 -3.862958 7 -3.184532 
L 7 -3.07327 
Q 7 -0.886024 5.127544 1.07327 
Q 1.301221 5.746269 0.793758 6.305292 
L 0.742198 6.305292 
L -4.41384 -0.04749 
Q -5.431479 -1.556309 -5.431479 -3.100407 
Q -5.431479 -4.880597 -3.743555 -5.933514 
Q -3.056988 -6.313433 -2.302578 -6.313433 
z
M -4.997286 -3.184532 
L -4.997286 -3.048847 
Q -4.997286 -1.192673 -3.233379 0.742198 
L 0.793758 5.65943 
L 0.818182 5.65943 
L 5.686567 -0.2673 
Q 6.568521 -1.632293 6.568521 -2.913161 
L 6.568521 -3.236092 
Q 6.568521 -4.693351 4.964722 -5.643148 
Q 4.364993 -5.881954 3.871099 -5.881954 
Q 1.632293 -5.881954 0.90502 -2.090909 
Q 0.818182 -1.767978 0.818182 -1.548168 
L 0.769335 -1.548168 
Q 0.769335 -2.210312 0.158752 -3.982361 
Q -0.698779 -5.881954 -2.302578 -5.881954 
Q -3.776119 -5.881954 -4.68521 -4.381275 
Q -4.997286 -3.786974 -4.997286 -3.184532 
z
" id="m073d242a05" style="stroke:#8172b3;"/>
    </defs>
    <g clip-path="url(#p6069d66fbd)">
     <use style="fill:#8172b3;stroke:#8172b3;" x="182.836027" xlink:href="#m073d242a05" y="636.616086"/>
     <use style="fill:#8172b3;stroke:#8172b3;" x="203.541037" xlink:href="#m073d242a05" y="636.616086"/>
     <use style="fill:#8172b3;stroke:#8172b3;" x="224.246046" xlink:href="#m073d242a05" y="631.764716"/>
     <use style="fill:#8172b3;stroke:#8172b3;" x="244.951055" xlink:href="#m073d242a05" y="450.396252"/>
     <use style="fill:#8172b3;stroke:#8172b3;" x="265.656064" xlink:href="#m073d242a05" y="259.816977"/>
     <use style="fill:#8172b3;stroke:#8172b3;" x="286.361074" xlink:href="#m073d242a05" y="218.739962"/>
     <use style="fill:#8172b3;stroke:#8172b3;" x="307.066083" xlink:href="#m073d242a05" y="136.882048"/>
     <use style="fill:#8172b3;stroke:#8172b3;" x="327.771092" xlink:href="#m073d242a05" y="137.249124"/>
     <use style="fill:#8172b3;stroke:#8172b3;" x="348.476102" xlink:href="#m073d242a05" y="130.468069"/>
     <use style="fill:#8172b3;stroke:#8172b3;" x="369.181111" xlink:href="#m073d242a05" y="136.03165"/>
     <use style="fill:#8172b3;stroke:#8172b3;" x="389.88612" xlink:href="#m073d242a05" y="81.637363"/>
     <use style="fill:#8172b3;stroke:#8172b3;" x="410.591129" xlink:href="#m073d242a05" y="133.249274"/>
     <use style="fill:#8172b3;stroke:#8172b3;" x="431.296139" xlink:href="#m073d242a05" y="153.770109"/>
     <use style="fill:#8172b3;stroke:#8172b3;" x="452.001148" xlink:href="#m073d242a05" y="109.854374"/>
     <use style="fill:#8172b3;stroke:#8172b3;" x="472.706157" xlink:href="#m073d242a05" y="85.79738"/>
     <use style="fill:#8172b3;stroke:#8172b3;" x="493.411167" xlink:href="#m073d242a05" y="97.997753"/>
     <use style="fill:#8172b3;stroke:#8172b3;" x="514.116176" xlink:href="#m073d242a05" y="97.538517"/>
     <use style="fill:#8172b3;stroke:#8172b3;" x="534.821185" xlink:href="#m073d242a05" y="91.30898"/>
     <use style="fill:#8172b3;stroke:#8172b3;" x="555.526194" xlink:href="#m073d242a05" y="117.568145"/>
     <use style="fill:#8172b3;stroke:#8172b3;" x="576.231204" xlink:href="#m073d242a05" y="95.730108"/>
     <use style="fill:#8172b3;stroke:#8172b3;" x="596.936213" xlink:href="#m073d242a05" y="93.204922"/>
     <use style="fill:#8172b3;stroke:#8172b3;" x="617.641222" xlink:href="#m073d242a05" y="131.470667"/>
     <use style="fill:#8172b3;stroke:#8172b3;" x="638.346231" xlink:href="#m073d242a05" y="120.625633"/>
     <use style="fill:#8172b3;stroke:#8172b3;" x="659.051241" xlink:href="#m073d242a05" y="120.845085"/>
     <use style="fill:#8172b3;stroke:#8172b3;" x="679.75625" xlink:href="#m073d242a05" y="98.486502"/>
     <use style="fill:#8172b3;stroke:#8172b3;" x="700.461259" xlink:href="#m073d242a05" y="101.23171"/>
     <use style="fill:#8172b3;stroke:#8172b3;" x="721.166269" xlink:href="#m073d242a05" y="120.291338"/>
     <use style="fill:#8172b3;stroke:#8172b3;" x="741.871278" xlink:href="#m073d242a05" y="141.221776"/>
     <use style="fill:#8172b3;stroke:#8172b3;" x="762.576287" xlink:href="#m073d242a05" y="126.92557"/>
     <use style="fill:#8172b3;stroke:#8172b3;" x="783.281296" xlink:href="#m073d242a05" y="148.46147"/>
     <use style="fill:#8172b3;stroke:#8172b3;" x="803.986306" xlink:href="#m073d242a05" y="150.028897"/>
     <use style="fill:#8172b3;stroke:#8172b3;" x="824.691315" xlink:href="#m073d242a05" y="163.085449"/>
     <use style="fill:#8172b3;stroke:#8172b3;" x="845.396324" xlink:href="#m073d242a05" y="150.078307"/>
     <use style="fill:#8172b3;stroke:#8172b3;" x="866.101333" xlink:href="#m073d242a05" y="155.583613"/>
     <use style="fill:#8172b3;stroke:#8172b3;" x="886.806343" xlink:href="#m073d242a05" y="156.716533"/>
     <use style="fill:#8172b3;stroke:#8172b3;" x="907.511352" xlink:href="#m073d242a05" y="152.879436"/>
     <use style="fill:#8172b3;stroke:#8172b3;" x="928.216361" xlink:href="#m073d242a05" y="153.923766"/>
     <use style="fill:#8172b3;stroke:#8172b3;" x="948.921371" xlink:href="#m073d242a05" y="155.633851"/>
     <use style="fill:#8172b3;stroke:#8172b3;" x="969.62638" xlink:href="#m073d242a05" y="163.0414"/>
    </g>
   </g>
   <g id="line2d_17">
    <path clip-path="url(#p6069d66fbd)" d="M 172.483523 636.616086 
L 193.188532 636.616086 
L 213.893541 397.443549 
L 234.598551 212.130922 
L 255.30356 174.647879 
L 276.008569 159.456005 
L 296.713578 127.668248 
L 317.418588 97.910734 
L 338.123597 114.972122 
L 358.828606 102.193879 
L 379.533615 137.860082 
L 400.238625 125.836644 
L 420.943634 150.616426 
L 441.648643 117.694082 
L 462.353653 84.010873 
L 483.058662 85.832607 
L 503.763671 141.915332 
L 524.46868 145.367887 
L 545.17369 133.512108 
L 565.878699 152.409319 
L 586.583708 110.941184 
L 607.288718 145.617913 
L 627.993727 162.589052 
L 648.698736 143.835392 
L 669.403745 142.299297 
L 690.108755 107.907997 
L 710.813764 98.801804 
L 731.518773 103.528335 
L 752.223782 131.912421 
L 772.928792 122.725212 
L 793.633801 122.571207 
L 814.33881 128.701262 
L 835.04382 127.512123 
" style="fill:none;stroke:#937860;stroke-linecap:round;stroke-width:4;"/>
    <defs>
     <path d="M 0 -7 
L -1.571598 -2.163119 
L -6.657396 -2.163119 
L -2.542899 0.826238 
L -4.114497 5.663119 
L -0 2.673762 
L 4.114497 5.663119 
L 2.542899 0.826238 
L 6.657396 -2.163119 
L 1.571598 -2.163119 
z
" id="m21252a14ba" style="stroke:#937860;stroke-linejoin:bevel;"/>
    </defs>
    <g clip-path="url(#p6069d66fbd)">
     <use style="fill:#937860;stroke:#937860;stroke-linejoin:bevel;" x="172.483523" xlink:href="#m21252a14ba" y="636.616086"/>
     <use style="fill:#937860;stroke:#937860;stroke-linejoin:bevel;" x="193.188532" xlink:href="#m21252a14ba" y="636.616086"/>
     <use style="fill:#937860;stroke:#937860;stroke-linejoin:bevel;" x="213.893541" xlink:href="#m21252a14ba" y="397.443549"/>
     <use style="fill:#937860;stroke:#937860;stroke-linejoin:bevel;" x="234.598551" xlink:href="#m21252a14ba" y="212.130922"/>
     <use style="fill:#937860;stroke:#937860;stroke-linejoin:bevel;" x="255.30356" xlink:href="#m21252a14ba" y="174.647879"/>
     <use style="fill:#937860;stroke:#937860;stroke-linejoin:bevel;" x="276.008569" xlink:href="#m21252a14ba" y="159.456005"/>
     <use style="fill:#937860;stroke:#937860;stroke-linejoin:bevel;" x="296.713578" xlink:href="#m21252a14ba" y="127.668248"/>
     <use style="fill:#937860;stroke:#937860;stroke-linejoin:bevel;" x="317.418588" xlink:href="#m21252a14ba" y="97.910734"/>
     <use style="fill:#937860;stroke:#937860;stroke-linejoin:bevel;" x="338.123597" xlink:href="#m21252a14ba" y="114.972122"/>
     <use style="fill:#937860;stroke:#937860;stroke-linejoin:bevel;" x="358.828606" xlink:href="#m21252a14ba" y="102.193879"/>
     <use style="fill:#937860;stroke:#937860;stroke-linejoin:bevel;" x="379.533615" xlink:href="#m21252a14ba" y="137.860082"/>
     <use style="fill:#937860;stroke:#937860;stroke-linejoin:bevel;" x="400.238625" xlink:href="#m21252a14ba" y="125.836644"/>
     <use style="fill:#937860;stroke:#937860;stroke-linejoin:bevel;" x="420.943634" xlink:href="#m21252a14ba" y="150.616426"/>
     <use style="fill:#937860;stroke:#937860;stroke-linejoin:bevel;" x="441.648643" xlink:href="#m21252a14ba" y="117.694082"/>
     <use style="fill:#937860;stroke:#937860;stroke-linejoin:bevel;" x="462.353653" xlink:href="#m21252a14ba" y="84.010873"/>
     <use style="fill:#937860;stroke:#937860;stroke-linejoin:bevel;" x="483.058662" xlink:href="#m21252a14ba" y="85.832607"/>
     <use style="fill:#937860;stroke:#937860;stroke-linejoin:bevel;" x="503.763671" xlink:href="#m21252a14ba" y="141.915332"/>
     <use style="fill:#937860;stroke:#937860;stroke-linejoin:bevel;" x="524.46868" xlink:href="#m21252a14ba" y="145.367887"/>
     <use style="fill:#937860;stroke:#937860;stroke-linejoin:bevel;" x="545.17369" xlink:href="#m21252a14ba" y="133.512108"/>
     <use style="fill:#937860;stroke:#937860;stroke-linejoin:bevel;" x="565.878699" xlink:href="#m21252a14ba" y="152.409319"/>
     <use style="fill:#937860;stroke:#937860;stroke-linejoin:bevel;" x="586.583708" xlink:href="#m21252a14ba" y="110.941184"/>
     <use style="fill:#937860;stroke:#937860;stroke-linejoin:bevel;" x="607.288718" xlink:href="#m21252a14ba" y="145.617913"/>
     <use style="fill:#937860;stroke:#937860;stroke-linejoin:bevel;" x="627.993727" xlink:href="#m21252a14ba" y="162.589052"/>
     <use style="fill:#937860;stroke:#937860;stroke-linejoin:bevel;" x="648.698736" xlink:href="#m21252a14ba" y="143.835392"/>
     <use style="fill:#937860;stroke:#937860;stroke-linejoin:bevel;" x="669.403745" xlink:href="#m21252a14ba" y="142.299297"/>
     <use style="fill:#937860;stroke:#937860;stroke-linejoin:bevel;" x="690.108755" xlink:href="#m21252a14ba" y="107.907997"/>
     <use style="fill:#937860;stroke:#937860;stroke-linejoin:bevel;" x="710.813764" xlink:href="#m21252a14ba" y="98.801804"/>
     <use style="fill:#937860;stroke:#937860;stroke-linejoin:bevel;" x="731.518773" xlink:href="#m21252a14ba" y="103.528335"/>
     <use style="fill:#937860;stroke:#937860;stroke-linejoin:bevel;" x="752.223782" xlink:href="#m21252a14ba" y="131.912421"/>
     <use style="fill:#937860;stroke:#937860;stroke-linejoin:bevel;" x="772.928792" xlink:href="#m21252a14ba" y="122.725212"/>
     <use style="fill:#937860;stroke:#937860;stroke-linejoin:bevel;" x="793.633801" xlink:href="#m21252a14ba" y="122.571207"/>
     <use style="fill:#937860;stroke:#937860;stroke-linejoin:bevel;" x="814.33881" xlink:href="#m21252a14ba" y="128.701262"/>
     <use style="fill:#937860;stroke:#937860;stroke-linejoin:bevel;" x="835.04382" xlink:href="#m21252a14ba" y="127.512123"/>
    </g>
   </g>
   <g id="line2d_18">
    <path clip-path="url(#p6069d66fbd)" d="M 172.483523 636.616086 
L 193.188532 636.616086 
L 213.893541 618.423449 
L 234.598551 396.59456 
L 255.30356 311.88479 
L 276.008569 255.91958 
L 296.713578 208.604434 
L 317.418588 189.873001 
L 338.123597 158.387699 
L 358.828606 157.483436 
L 379.533615 144.180486 
L 400.238625 152.004986 
L 420.943634 332.988366 
L 441.648643 162.850942 
L 462.353653 167.943953 
L 483.058662 152.069937 
L 503.763671 163.213802 
L 524.46868 134.842699 
L 545.17369 139.061927 
L 565.878699 123.358486 
L 586.583708 105.576823 
L 607.288718 116.76164 
L 627.993727 104.172232 
L 648.698736 136.874309 
L 669.403745 158.71365 
L 690.108755 158.207199 
L 710.813764 151.596812 
L 731.518773 143.880565 
L 752.223782 112.115782 
L 772.928792 151.377275 
L 793.633801 154.474546 
L 814.33881 165.049735 
L 835.04382 165.824697 
L 855.748829 164.648272 
L 876.453838 157.796694 
L 897.158847 169.641667 
L 917.863857 164.809539 
L 938.568866 177.017661 
L 959.273875 160.43041 
L 979.978885 159.31037 
L 1000.683894 159.513577 
L 1021.388903 173.898272 
L 1042.093912 165.371643 
L 1062.798922 165.940584 
" style="fill:none;stroke:#c44e52;stroke-linecap:round;stroke-width:4;"/>
    <defs>
     <path d="M -0 9.899495 
L 5.939697 0 
L 0 -9.899495 
L -5.939697 -0 
z
" id="m6c1dd41579" style="stroke:#c44e52;stroke-linejoin:miter;"/>
    </defs>
    <g clip-path="url(#p6069d66fbd)">
     <use style="fill:#c44e52;stroke:#c44e52;stroke-linejoin:miter;" x="172.483523" xlink:href="#m6c1dd41579" y="636.616086"/>
     <use style="fill:#c44e52;stroke:#c44e52;stroke-linejoin:miter;" x="193.188532" xlink:href="#m6c1dd41579" y="636.616086"/>
     <use style="fill:#c44e52;stroke:#c44e52;stroke-linejoin:miter;" x="213.893541" xlink:href="#m6c1dd41579" y="618.423449"/>
     <use style="fill:#c44e52;stroke:#c44e52;stroke-linejoin:miter;" x="234.598551" xlink:href="#m6c1dd41579" y="396.59456"/>
     <use style="fill:#c44e52;stroke:#c44e52;stroke-linejoin:miter;" x="255.30356" xlink:href="#m6c1dd41579" y="311.88479"/>
     <use style="fill:#c44e52;stroke:#c44e52;stroke-linejoin:miter;" x="276.008569" xlink:href="#m6c1dd41579" y="255.91958"/>
     <use style="fill:#c44e52;stroke:#c44e52;stroke-linejoin:miter;" x="296.713578" xlink:href="#m6c1dd41579" y="208.604434"/>
     <use style="fill:#c44e52;stroke:#c44e52;stroke-linejoin:miter;" x="317.418588" xlink:href="#m6c1dd41579" y="189.873001"/>
     <use style="fill:#c44e52;stroke:#c44e52;stroke-linejoin:miter;" x="338.123597" xlink:href="#m6c1dd41579" y="158.387699"/>
     <use style="fill:#c44e52;stroke:#c44e52;stroke-linejoin:miter;" x="358.828606" xlink:href="#m6c1dd41579" y="157.483436"/>
     <use style="fill:#c44e52;stroke:#c44e52;stroke-linejoin:miter;" x="379.533615" xlink:href="#m6c1dd41579" y="144.180486"/>
     <use style="fill:#c44e52;stroke:#c44e52;stroke-linejoin:miter;" x="400.238625" xlink:href="#m6c1dd41579" y="152.004986"/>
     <use style="fill:#c44e52;stroke:#c44e52;stroke-linejoin:miter;" x="420.943634" xlink:href="#m6c1dd41579" y="332.988366"/>
     <use style="fill:#c44e52;stroke:#c44e52;stroke-linejoin:miter;" x="441.648643" xlink:href="#m6c1dd41579" y="162.850942"/>
     <use style="fill:#c44e52;stroke:#c44e52;stroke-linejoin:miter;" x="462.353653" xlink:href="#m6c1dd41579" y="167.943953"/>
     <use style="fill:#c44e52;stroke:#c44e52;stroke-linejoin:miter;" x="483.058662" xlink:href="#m6c1dd41579" y="152.069937"/>
     <use style="fill:#c44e52;stroke:#c44e52;stroke-linejoin:miter;" x="503.763671" xlink:href="#m6c1dd41579" y="163.213802"/>
     <use style="fill:#c44e52;stroke:#c44e52;stroke-linejoin:miter;" x="524.46868" xlink:href="#m6c1dd41579" y="134.842699"/>
     <use style="fill:#c44e52;stroke:#c44e52;stroke-linejoin:miter;" x="545.17369" xlink:href="#m6c1dd41579" y="139.061927"/>
     <use style="fill:#c44e52;stroke:#c44e52;stroke-linejoin:miter;" x="565.878699" xlink:href="#m6c1dd41579" y="123.358486"/>
     <use style="fill:#c44e52;stroke:#c44e52;stroke-linejoin:miter;" x="586.583708" xlink:href="#m6c1dd41579" y="105.576823"/>
     <use style="fill:#c44e52;stroke:#c44e52;stroke-linejoin:miter;" x="607.288718" xlink:href="#m6c1dd41579" y="116.76164"/>
     <use style="fill:#c44e52;stroke:#c44e52;stroke-linejoin:miter;" x="627.993727" xlink:href="#m6c1dd41579" y="104.172232"/>
     <use style="fill:#c44e52;stroke:#c44e52;stroke-linejoin:miter;" x="648.698736" xlink:href="#m6c1dd41579" y="136.874309"/>
     <use style="fill:#c44e52;stroke:#c44e52;stroke-linejoin:miter;" x="669.403745" xlink:href="#m6c1dd41579" y="158.71365"/>
     <use style="fill:#c44e52;stroke:#c44e52;stroke-linejoin:miter;" x="690.108755" xlink:href="#m6c1dd41579" y="158.207199"/>
     <use style="fill:#c44e52;stroke:#c44e52;stroke-linejoin:miter;" x="710.813764" xlink:href="#m6c1dd41579" y="151.596812"/>
     <use style="fill:#c44e52;stroke:#c44e52;stroke-linejoin:miter;" x="731.518773" xlink:href="#m6c1dd41579" y="143.880565"/>
     <use style="fill:#c44e52;stroke:#c44e52;stroke-linejoin:miter;" x="752.223782" xlink:href="#m6c1dd41579" y="112.115782"/>
     <use style="fill:#c44e52;stroke:#c44e52;stroke-linejoin:miter;" x="772.928792" xlink:href="#m6c1dd41579" y="151.377275"/>
     <use style="fill:#c44e52;stroke:#c44e52;stroke-linejoin:miter;" x="793.633801" xlink:href="#m6c1dd41579" y="154.474546"/>
     <use style="fill:#c44e52;stroke:#c44e52;stroke-linejoin:miter;" x="814.33881" xlink:href="#m6c1dd41579" y="165.049735"/>
     <use style="fill:#c44e52;stroke:#c44e52;stroke-linejoin:miter;" x="835.04382" xlink:href="#m6c1dd41579" y="165.824697"/>
     <use style="fill:#c44e52;stroke:#c44e52;stroke-linejoin:miter;" x="855.748829" xlink:href="#m6c1dd41579" y="164.648272"/>
     <use style="fill:#c44e52;stroke:#c44e52;stroke-linejoin:miter;" x="876.453838" xlink:href="#m6c1dd41579" y="157.796694"/>
     <use style="fill:#c44e52;stroke:#c44e52;stroke-linejoin:miter;" x="897.158847" xlink:href="#m6c1dd41579" y="169.641667"/>
     <use style="fill:#c44e52;stroke:#c44e52;stroke-linejoin:miter;" x="917.863857" xlink:href="#m6c1dd41579" y="164.809539"/>
     <use style="fill:#c44e52;stroke:#c44e52;stroke-linejoin:miter;" x="938.568866" xlink:href="#m6c1dd41579" y="177.017661"/>
     <use style="fill:#c44e52;stroke:#c44e52;stroke-linejoin:miter;" x="959.273875" xlink:href="#m6c1dd41579" y="160.43041"/>
     <use style="fill:#c44e52;stroke:#c44e52;stroke-linejoin:miter;" x="979.978885" xlink:href="#m6c1dd41579" y="159.31037"/>
     <use style="fill:#c44e52;stroke:#c44e52;stroke-linejoin:miter;" x="1000.683894" xlink:href="#m6c1dd41579" y="159.513577"/>
     <use style="fill:#c44e52;stroke:#c44e52;stroke-linejoin:miter;" x="1021.388903" xlink:href="#m6c1dd41579" y="173.898272"/>
     <use style="fill:#c44e52;stroke:#c44e52;stroke-linejoin:miter;" x="1042.093912" xlink:href="#m6c1dd41579" y="165.371643"/>
     <use style="fill:#c44e52;stroke:#c44e52;stroke-linejoin:miter;" x="1062.798922" xlink:href="#m6c1dd41579" y="165.940584"/>
    </g>
   </g>
   <g id="line2d_19">
    <path clip-path="url(#p6069d66fbd)" d="M 172.483523 636.616086 
L 193.188532 636.616086 
L 213.893541 474.701615 
L 234.598551 460.074735 
L 255.30356 271.063423 
L 276.008569 268.997981 
L 296.713578 236.235381 
L 317.418588 167.801101 
L 338.123597 189.495343 
L 358.828606 157.281468 
L 379.533615 169.456186 
L 400.238625 167.653588 
L 420.943634 145.173488 
L 441.648643 165.946303 
L 462.353653 155.231879 
L 483.058662 133.667186 
L 503.763671 246.945576 
L 524.46868 228.539083 
L 545.17369 241.196941 
L 565.878699 258.246048 
L 586.583708 205.924719 
L 607.288718 222.989178 
L 627.993727 165.336868 
L 648.698736 155.618904 
L 669.403745 135.261926 
L 690.108755 141.274681 
L 710.813764 119.667561 
L 731.518773 123.168432 
L 752.223782 130.735527 
L 772.928792 145.830674 
L 793.633801 108.936725 
L 814.33881 89.226838 
L 835.04382 87.103933 
L 855.748829 76.394379 
L 876.453838 90.610292 
L 897.158847 85.055007 
L 917.863857 90.696012 
L 938.568866 94.546038 
L 959.273875 86.714444 
L 979.978885 86.078187 
L 1000.683894 89.245093 
L 1021.388903 86.746652 
L 1042.093912 98.339491 
L 1062.798922 91.839899 
L 1083.503931 90.47032 
L 1104.20894 85.853607 
L 1124.913949 89.528097 
L 1145.618959 86.120828 
L 1166.323968 92.535119 
L 1187.028977 95.935821 
" style="fill:none;stroke:#55a868;stroke-linecap:round;stroke-width:4;"/>
    <defs>
     <path d="M -7 7 
L 7 7 
L 7 -7 
L -7 -7 
z
" id="mc7b6221330" style="stroke:#55a868;stroke-linejoin:miter;"/>
    </defs>
    <g clip-path="url(#p6069d66fbd)">
     <use style="fill:#55a868;stroke:#55a868;stroke-linejoin:miter;" x="172.483523" xlink:href="#mc7b6221330" y="636.616086"/>
     <use style="fill:#55a868;stroke:#55a868;stroke-linejoin:miter;" x="193.188532" xlink:href="#mc7b6221330" y="636.616086"/>
     <use style="fill:#55a868;stroke:#55a868;stroke-linejoin:miter;" x="213.893541" xlink:href="#mc7b6221330" y="474.701615"/>
     <use style="fill:#55a868;stroke:#55a868;stroke-linejoin:miter;" x="234.598551" xlink:href="#mc7b6221330" y="460.074735"/>
     <use style="fill:#55a868;stroke:#55a868;stroke-linejoin:miter;" x="255.30356" xlink:href="#mc7b6221330" y="271.063423"/>
     <use style="fill:#55a868;stroke:#55a868;stroke-linejoin:miter;" x="276.008569" xlink:href="#mc7b6221330" y="268.997981"/>
     <use style="fill:#55a868;stroke:#55a868;stroke-linejoin:miter;" x="296.713578" xlink:href="#mc7b6221330" y="236.235381"/>
     <use style="fill:#55a868;stroke:#55a868;stroke-linejoin:miter;" x="317.418588" xlink:href="#mc7b6221330" y="167.801101"/>
     <use style="fill:#55a868;stroke:#55a868;stroke-linejoin:miter;" x="338.123597" xlink:href="#mc7b6221330" y="189.495343"/>
     <use style="fill:#55a868;stroke:#55a868;stroke-linejoin:miter;" x="358.828606" xlink:href="#mc7b6221330" y="157.281468"/>
     <use style="fill:#55a868;stroke:#55a868;stroke-linejoin:miter;" x="379.533615" xlink:href="#mc7b6221330" y="169.456186"/>
     <use style="fill:#55a868;stroke:#55a868;stroke-linejoin:miter;" x="400.238625" xlink:href="#mc7b6221330" y="167.653588"/>
     <use style="fill:#55a868;stroke:#55a868;stroke-linejoin:miter;" x="420.943634" xlink:href="#mc7b6221330" y="145.173488"/>
     <use style="fill:#55a868;stroke:#55a868;stroke-linejoin:miter;" x="441.648643" xlink:href="#mc7b6221330" y="165.946303"/>
     <use style="fill:#55a868;stroke:#55a868;stroke-linejoin:miter;" x="462.353653" xlink:href="#mc7b6221330" y="155.231879"/>
     <use style="fill:#55a868;stroke:#55a868;stroke-linejoin:miter;" x="483.058662" xlink:href="#mc7b6221330" y="133.667186"/>
     <use style="fill:#55a868;stroke:#55a868;stroke-linejoin:miter;" x="503.763671" xlink:href="#mc7b6221330" y="246.945576"/>
     <use style="fill:#55a868;stroke:#55a868;stroke-linejoin:miter;" x="524.46868" xlink:href="#mc7b6221330" y="228.539083"/>
     <use style="fill:#55a868;stroke:#55a868;stroke-linejoin:miter;" x="545.17369" xlink:href="#mc7b6221330" y="241.196941"/>
     <use style="fill:#55a868;stroke:#55a868;stroke-linejoin:miter;" x="565.878699" xlink:href="#mc7b6221330" y="258.246048"/>
     <use style="fill:#55a868;stroke:#55a868;stroke-linejoin:miter;" x="586.583708" xlink:href="#mc7b6221330" y="205.924719"/>
     <use style="fill:#55a868;stroke:#55a868;stroke-linejoin:miter;" x="607.288718" xlink:href="#mc7b6221330" y="222.989178"/>
     <use style="fill:#55a868;stroke:#55a868;stroke-linejoin:miter;" x="627.993727" xlink:href="#mc7b6221330" y="165.336868"/>
     <use style="fill:#55a868;stroke:#55a868;stroke-linejoin:miter;" x="648.698736" xlink:href="#mc7b6221330" y="155.618904"/>
     <use style="fill:#55a868;stroke:#55a868;stroke-linejoin:miter;" x="669.403745" xlink:href="#mc7b6221330" y="135.261926"/>
     <use style="fill:#55a868;stroke:#55a868;stroke-linejoin:miter;" x="690.108755" xlink:href="#mc7b6221330" y="141.274681"/>
     <use style="fill:#55a868;stroke:#55a868;stroke-linejoin:miter;" x="710.813764" xlink:href="#mc7b6221330" y="119.667561"/>
     <use style="fill:#55a868;stroke:#55a868;stroke-linejoin:miter;" x="731.518773" xlink:href="#mc7b6221330" y="123.168432"/>
     <use style="fill:#55a868;stroke:#55a868;stroke-linejoin:miter;" x="752.223782" xlink:href="#mc7b6221330" y="130.735527"/>
     <use style="fill:#55a868;stroke:#55a868;stroke-linejoin:miter;" x="772.928792" xlink:href="#mc7b6221330" y="145.830674"/>
     <use style="fill:#55a868;stroke:#55a868;stroke-linejoin:miter;" x="793.633801" xlink:href="#mc7b6221330" y="108.936725"/>
     <use style="fill:#55a868;stroke:#55a868;stroke-linejoin:miter;" x="814.33881" xlink:href="#mc7b6221330" y="89.226838"/>
     <use style="fill:#55a868;stroke:#55a868;stroke-linejoin:miter;" x="835.04382" xlink:href="#mc7b6221330" y="87.103933"/>
     <use style="fill:#55a868;stroke:#55a868;stroke-linejoin:miter;" x="855.748829" xlink:href="#mc7b6221330" y="76.394379"/>
     <use style="fill:#55a868;stroke:#55a868;stroke-linejoin:miter;" x="876.453838" xlink:href="#mc7b6221330" y="90.610292"/>
     <use style="fill:#55a868;stroke:#55a868;stroke-linejoin:miter;" x="897.158847" xlink:href="#mc7b6221330" y="85.055007"/>
     <use style="fill:#55a868;stroke:#55a868;stroke-linejoin:miter;" x="917.863857" xlink:href="#mc7b6221330" y="90.696012"/>
     <use style="fill:#55a868;stroke:#55a868;stroke-linejoin:miter;" x="938.568866" xlink:href="#mc7b6221330" y="94.546038"/>
     <use style="fill:#55a868;stroke:#55a868;stroke-linejoin:miter;" x="959.273875" xlink:href="#mc7b6221330" y="86.714444"/>
     <use style="fill:#55a868;stroke:#55a868;stroke-linejoin:miter;" x="979.978885" xlink:href="#mc7b6221330" y="86.078187"/>
     <use style="fill:#55a868;stroke:#55a868;stroke-linejoin:miter;" x="1000.683894" xlink:href="#mc7b6221330" y="89.245093"/>
     <use style="fill:#55a868;stroke:#55a868;stroke-linejoin:miter;" x="1021.388903" xlink:href="#mc7b6221330" y="86.746652"/>
     <use style="fill:#55a868;stroke:#55a868;stroke-linejoin:miter;" x="1042.093912" xlink:href="#mc7b6221330" y="98.339491"/>
     <use style="fill:#55a868;stroke:#55a868;stroke-linejoin:miter;" x="1062.798922" xlink:href="#mc7b6221330" y="91.839899"/>
     <use style="fill:#55a868;stroke:#55a868;stroke-linejoin:miter;" x="1083.503931" xlink:href="#mc7b6221330" y="90.47032"/>
     <use style="fill:#55a868;stroke:#55a868;stroke-linejoin:miter;" x="1104.20894" xlink:href="#mc7b6221330" y="85.853607"/>
     <use style="fill:#55a868;stroke:#55a868;stroke-linejoin:miter;" x="1124.913949" xlink:href="#mc7b6221330" y="89.528097"/>
     <use style="fill:#55a868;stroke:#55a868;stroke-linejoin:miter;" x="1145.618959" xlink:href="#mc7b6221330" y="86.120828"/>
     <use style="fill:#55a868;stroke:#55a868;stroke-linejoin:miter;" x="1166.323968" xlink:href="#mc7b6221330" y="92.535119"/>
     <use style="fill:#55a868;stroke:#55a868;stroke-linejoin:miter;" x="1187.028977" xlink:href="#mc7b6221330" y="95.935821"/>
    </g>
   </g>
   <g id="line2d_20">
    <path clip-path="url(#p6069d66fbd)" d="M 172.483523 621.455555 
L 193.188532 520.910913 
L 213.893541 438.748113 
L 234.598551 565.383615 
L 255.30356 610.972396 
L 276.008569 627.384358 
L 296.713578 633.292664 
L 317.418588 635.419654 
L 338.123597 636.18537 
L 358.828606 636.461028 
L 379.533615 636.560265 
L 400.238625 636.59599 
L 420.943634 636.608851 
L 441.648643 636.613481 
L 462.353653 636.615148 
L 483.058662 636.615748 
L 503.763671 636.615964 
L 524.46868 636.616042 
L 545.17369 636.61607 
L 565.878699 636.61608 
L 586.583708 636.616084 
L 607.288718 636.616085 
L 627.993727 636.616085 
L 648.698736 636.616086 
L 669.403745 636.616086 
L 690.108755 636.616086 
L 710.813764 636.616086 
" style="fill:none;stroke:#da8bc3;stroke-linecap:round;stroke-width:4;"/>
    <defs>
     <path d="M -3.5 7 
L 0 3.5 
L 3.5 7 
L 7 3.5 
L 3.5 0 
L 7 -3.5 
L 3.5 -7 
L 0 -3.5 
L -3.5 -7 
L -7 -3.5 
L -3.5 0 
L -7 3.5 
z
" id="m1c147a9dd5" style="stroke:#da8bc3;stroke-linejoin:miter;"/>
    </defs>
    <g clip-path="url(#p6069d66fbd)">
     <use style="fill:#da8bc3;stroke:#da8bc3;stroke-linejoin:miter;" x="172.483523" xlink:href="#m1c147a9dd5" y="621.455555"/>
     <use style="fill:#da8bc3;stroke:#da8bc3;stroke-linejoin:miter;" x="193.188532" xlink:href="#m1c147a9dd5" y="520.910913"/>
     <use style="fill:#da8bc3;stroke:#da8bc3;stroke-linejoin:miter;" x="213.893541" xlink:href="#m1c147a9dd5" y="438.748113"/>
     <use style="fill:#da8bc3;stroke:#da8bc3;stroke-linejoin:miter;" x="234.598551" xlink:href="#m1c147a9dd5" y="565.383615"/>
     <use style="fill:#da8bc3;stroke:#da8bc3;stroke-linejoin:miter;" x="255.30356" xlink:href="#m1c147a9dd5" y="610.972396"/>
     <use style="fill:#da8bc3;stroke:#da8bc3;stroke-linejoin:miter;" x="276.008569" xlink:href="#m1c147a9dd5" y="627.384358"/>
     <use style="fill:#da8bc3;stroke:#da8bc3;stroke-linejoin:miter;" x="296.713578" xlink:href="#m1c147a9dd5" y="633.292664"/>
     <use style="fill:#da8bc3;stroke:#da8bc3;stroke-linejoin:miter;" x="317.418588" xlink:href="#m1c147a9dd5" y="635.419654"/>
     <use style="fill:#da8bc3;stroke:#da8bc3;stroke-linejoin:miter;" x="338.123597" xlink:href="#m1c147a9dd5" y="636.18537"/>
     <use style="fill:#da8bc3;stroke:#da8bc3;stroke-linejoin:miter;" x="358.828606" xlink:href="#m1c147a9dd5" y="636.461028"/>
     <use style="fill:#da8bc3;stroke:#da8bc3;stroke-linejoin:miter;" x="379.533615" xlink:href="#m1c147a9dd5" y="636.560265"/>
     <use style="fill:#da8bc3;stroke:#da8bc3;stroke-linejoin:miter;" x="400.238625" xlink:href="#m1c147a9dd5" y="636.59599"/>
     <use style="fill:#da8bc3;stroke:#da8bc3;stroke-linejoin:miter;" x="420.943634" xlink:href="#m1c147a9dd5" y="636.608851"/>
     <use style="fill:#da8bc3;stroke:#da8bc3;stroke-linejoin:miter;" x="441.648643" xlink:href="#m1c147a9dd5" y="636.613481"/>
     <use style="fill:#da8bc3;stroke:#da8bc3;stroke-linejoin:miter;" x="462.353653" xlink:href="#m1c147a9dd5" y="636.615148"/>
     <use style="fill:#da8bc3;stroke:#da8bc3;stroke-linejoin:miter;" x="483.058662" xlink:href="#m1c147a9dd5" y="636.615748"/>
     <use style="fill:#da8bc3;stroke:#da8bc3;stroke-linejoin:miter;" x="503.763671" xlink:href="#m1c147a9dd5" y="636.615964"/>
     <use style="fill:#da8bc3;stroke:#da8bc3;stroke-linejoin:miter;" x="524.46868" xlink:href="#m1c147a9dd5" y="636.616042"/>
     <use style="fill:#da8bc3;stroke:#da8bc3;stroke-linejoin:miter;" x="545.17369" xlink:href="#m1c147a9dd5" y="636.61607"/>
     <use style="fill:#da8bc3;stroke:#da8bc3;stroke-linejoin:miter;" x="565.878699" xlink:href="#m1c147a9dd5" y="636.61608"/>
     <use style="fill:#da8bc3;stroke:#da8bc3;stroke-linejoin:miter;" x="586.583708" xlink:href="#m1c147a9dd5" y="636.616084"/>
     <use style="fill:#da8bc3;stroke:#da8bc3;stroke-linejoin:miter;" x="607.288718" xlink:href="#m1c147a9dd5" y="636.616085"/>
     <use style="fill:#da8bc3;stroke:#da8bc3;stroke-linejoin:miter;" x="627.993727" xlink:href="#m1c147a9dd5" y="636.616085"/>
     <use style="fill:#da8bc3;stroke:#da8bc3;stroke-linejoin:miter;" x="648.698736" xlink:href="#m1c147a9dd5" y="636.616086"/>
     <use style="fill:#da8bc3;stroke:#da8bc3;stroke-linejoin:miter;" x="669.403745" xlink:href="#m1c147a9dd5" y="636.616086"/>
     <use style="fill:#da8bc3;stroke:#da8bc3;stroke-linejoin:miter;" x="690.108755" xlink:href="#m1c147a9dd5" y="636.616086"/>
     <use style="fill:#da8bc3;stroke:#da8bc3;stroke-linejoin:miter;" x="710.813764" xlink:href="#m1c147a9dd5" y="636.616086"/>
    </g>
   </g>
   <g id="line2d_21">
    <path clip-path="url(#p6069d66fbd)" d="M 172.483523 636.616086 
L 193.188532 636.616086 
L 213.893541 636.616086 
L 234.598551 636.616086 
L 255.30356 640.618466 
L 276.008569 638.056943 
L 296.713578 637.134794 
L 317.418588 636.802821 
L 338.123597 636.68331 
L 358.828606 636.640287 
L 379.533615 636.624798 
L 400.238625 636.619222 
L 420.943634 636.617215 
L 441.648643 636.616492 
L 462.353653 636.616232 
L 483.058662 636.616138 
L 503.763671 636.616105 
L 524.46868 636.616093 
L 545.17369 636.616088 
L 565.878699 636.616087 
L 586.583708 636.616086 
L 607.288718 636.616086 
L 627.993727 636.616086 
L 648.698736 636.616086 
L 669.403745 636.616086 
L 690.108755 636.616086 
L 710.813764 636.616086 
L 731.518773 636.616086 
L 752.223782 636.616086 
" style="fill:none;stroke:#4c72b0;stroke-linecap:round;stroke-width:4;"/>
    <defs>
     <path d="M 0 -7 
L -6.657396 -2.163119 
L -4.114497 5.663119 
L 4.114497 5.663119 
L 6.657396 -2.163119 
z
" id="m5f5cabbe6d" style="stroke:#4c72b0;stroke-linejoin:miter;"/>
    </defs>
    <g clip-path="url(#p6069d66fbd)">
     <use style="fill:#4c72b0;stroke:#4c72b0;stroke-linejoin:miter;" x="172.483523" xlink:href="#m5f5cabbe6d" y="636.616086"/>
     <use style="fill:#4c72b0;stroke:#4c72b0;stroke-linejoin:miter;" x="193.188532" xlink:href="#m5f5cabbe6d" y="636.616086"/>
     <use style="fill:#4c72b0;stroke:#4c72b0;stroke-linejoin:miter;" x="213.893541" xlink:href="#m5f5cabbe6d" y="636.616086"/>
     <use style="fill:#4c72b0;stroke:#4c72b0;stroke-linejoin:miter;" x="234.598551" xlink:href="#m5f5cabbe6d" y="636.616086"/>
     <use style="fill:#4c72b0;stroke:#4c72b0;stroke-linejoin:miter;" x="255.30356" xlink:href="#m5f5cabbe6d" y="640.618466"/>
     <use style="fill:#4c72b0;stroke:#4c72b0;stroke-linejoin:miter;" x="276.008569" xlink:href="#m5f5cabbe6d" y="638.056943"/>
     <use style="fill:#4c72b0;stroke:#4c72b0;stroke-linejoin:miter;" x="296.713578" xlink:href="#m5f5cabbe6d" y="637.134794"/>
     <use style="fill:#4c72b0;stroke:#4c72b0;stroke-linejoin:miter;" x="317.418588" xlink:href="#m5f5cabbe6d" y="636.802821"/>
     <use style="fill:#4c72b0;stroke:#4c72b0;stroke-linejoin:miter;" x="338.123597" xlink:href="#m5f5cabbe6d" y="636.68331"/>
     <use style="fill:#4c72b0;stroke:#4c72b0;stroke-linejoin:miter;" x="358.828606" xlink:href="#m5f5cabbe6d" y="636.640287"/>
     <use style="fill:#4c72b0;stroke:#4c72b0;stroke-linejoin:miter;" x="379.533615" xlink:href="#m5f5cabbe6d" y="636.624798"/>
     <use style="fill:#4c72b0;stroke:#4c72b0;stroke-linejoin:miter;" x="400.238625" xlink:href="#m5f5cabbe6d" y="636.619222"/>
     <use style="fill:#4c72b0;stroke:#4c72b0;stroke-linejoin:miter;" x="420.943634" xlink:href="#m5f5cabbe6d" y="636.617215"/>
     <use style="fill:#4c72b0;stroke:#4c72b0;stroke-linejoin:miter;" x="441.648643" xlink:href="#m5f5cabbe6d" y="636.616492"/>
     <use style="fill:#4c72b0;stroke:#4c72b0;stroke-linejoin:miter;" x="462.353653" xlink:href="#m5f5cabbe6d" y="636.616232"/>
     <use style="fill:#4c72b0;stroke:#4c72b0;stroke-linejoin:miter;" x="483.058662" xlink:href="#m5f5cabbe6d" y="636.616138"/>
     <use style="fill:#4c72b0;stroke:#4c72b0;stroke-linejoin:miter;" x="503.763671" xlink:href="#m5f5cabbe6d" y="636.616105"/>
     <use style="fill:#4c72b0;stroke:#4c72b0;stroke-linejoin:miter;" x="524.46868" xlink:href="#m5f5cabbe6d" y="636.616093"/>
     <use style="fill:#4c72b0;stroke:#4c72b0;stroke-linejoin:miter;" x="545.17369" xlink:href="#m5f5cabbe6d" y="636.616088"/>
     <use style="fill:#4c72b0;stroke:#4c72b0;stroke-linejoin:miter;" x="565.878699" xlink:href="#m5f5cabbe6d" y="636.616087"/>
     <use style="fill:#4c72b0;stroke:#4c72b0;stroke-linejoin:miter;" x="586.583708" xlink:href="#m5f5cabbe6d" y="636.616086"/>
     <use style="fill:#4c72b0;stroke:#4c72b0;stroke-linejoin:miter;" x="607.288718" xlink:href="#m5f5cabbe6d" y="636.616086"/>
     <use style="fill:#4c72b0;stroke:#4c72b0;stroke-linejoin:miter;" x="627.993727" xlink:href="#m5f5cabbe6d" y="636.616086"/>
     <use style="fill:#4c72b0;stroke:#4c72b0;stroke-linejoin:miter;" x="648.698736" xlink:href="#m5f5cabbe6d" y="636.616086"/>
     <use style="fill:#4c72b0;stroke:#4c72b0;stroke-linejoin:miter;" x="669.403745" xlink:href="#m5f5cabbe6d" y="636.616086"/>
     <use style="fill:#4c72b0;stroke:#4c72b0;stroke-linejoin:miter;" x="690.108755" xlink:href="#m5f5cabbe6d" y="636.616086"/>
     <use style="fill:#4c72b0;stroke:#4c72b0;stroke-linejoin:miter;" x="710.813764" xlink:href="#m5f5cabbe6d" y="636.616086"/>
     <use style="fill:#4c72b0;stroke:#4c72b0;stroke-linejoin:miter;" x="731.518773" xlink:href="#m5f5cabbe6d" y="636.616086"/>
     <use style="fill:#4c72b0;stroke:#4c72b0;stroke-linejoin:miter;" x="752.223782" xlink:href="#m5f5cabbe6d" y="636.616086"/>
    </g>
   </g>
   <g id="patch_3">
    <path d="M 121.75625 670.269375 
L 121.75625 17.949375 
" style="fill:none;stroke:#ffffff;stroke-linecap:square;stroke-linejoin:miter;stroke-width:1.25;"/>
   </g>
   <g id="patch_4">
    <path d="M 1237.75625 670.269375 
L 1237.75625 17.949375 
" style="fill:none;stroke:#ffffff;stroke-linecap:square;stroke-linejoin:miter;stroke-width:1.25;"/>
   </g>
   <g id="patch_5">
    <path d="M 121.75625 670.269375 
L 1237.75625 670.269375 
" style="fill:none;stroke:#ffffff;stroke-linecap:square;stroke-linejoin:miter;stroke-width:1.25;"/>
   </g>
   <g id="patch_6">
    <path d="M 121.75625 17.949375 
L 1237.75625 17.949375 
" style="fill:none;stroke:#ffffff;stroke-linecap:square;stroke-linejoin:miter;stroke-width:1.25;"/>
   </g>
   <g id="legend_1">
    <g id="patch_7">
     <path d="M 917.465 590.332275 
L 1220.95625 590.332275 
Q 1225.75625 590.332275 1225.75625 585.532275 
L 1225.75625 341.339775 
Q 1225.75625 336.539775 1220.95625 336.539775 
L 917.465 336.539775 
Q 912.665 336.539775 912.665 341.339775 
L 912.665 585.532275 
Q 912.665 590.332275 917.465 590.332275 
z
" style="fill:#eaeaf2;opacity:0.8;stroke:#cccccc;stroke-linejoin:miter;"/>
    </g>
    <g id="line2d_22">
     <path d="M 922.265 355.976025 
L 970.265 355.976025 
" style="fill:none;stroke:#dd8452;stroke-linecap:round;stroke-width:4;"/>
    </g>
    <g id="line2d_23">
     <g>
      <use style="fill:#dd8452;stroke:#dd8452;stroke-linejoin:miter;" x="946.265" xlink:href="#m524a09a09e" y="355.976025"/>
     </g>
    </g>
    <g id="text_17">
     <!-- MB-MTL2 -->
     <g style="fill:#262626;" transform="translate(989.465 364.376025)scale(0.24 -0.24)">
      <defs>
       <path d="M 19.671875 34.8125 
L 19.671875 8.109375 
L 35.5 8.109375 
Q 43.453125 8.109375 47.28125 11.40625 
Q 51.125 14.703125 51.125 21.484375 
Q 51.125 28.328125 47.28125 31.5625 
Q 43.453125 34.8125 35.5 34.8125 
z
M 19.671875 64.796875 
L 19.671875 42.828125 
L 34.28125 42.828125 
Q 41.5 42.828125 45.03125 45.53125 
Q 48.578125 48.25 48.578125 53.8125 
Q 48.578125 59.328125 45.03125 62.0625 
Q 41.5 64.796875 34.28125 64.796875 
z
M 9.8125 72.90625 
L 35.015625 72.90625 
Q 46.296875 72.90625 52.390625 68.21875 
Q 58.5 63.53125 58.5 54.890625 
Q 58.5 48.1875 55.375 44.234375 
Q 52.25 40.28125 46.1875 39.3125 
Q 53.46875 37.75 57.5 32.78125 
Q 61.53125 27.828125 61.53125 20.40625 
Q 61.53125 10.640625 54.890625 5.3125 
Q 48.25 0 35.984375 0 
L 9.8125 0 
z
" id="DejaVuSans-66"/>
       <path d="M 4.890625 31.390625 
L 31.203125 31.390625 
L 31.203125 23.390625 
L 4.890625 23.390625 
z
" id="DejaVuSans-45"/>
       <path d="M -0.296875 72.90625 
L 61.375 72.90625 
L 61.375 64.59375 
L 35.5 64.59375 
L 35.5 0 
L 25.59375 0 
L 25.59375 64.59375 
L -0.296875 64.59375 
z
" id="DejaVuSans-84"/>
       <path d="M 9.8125 72.90625 
L 19.671875 72.90625 
L 19.671875 8.296875 
L 55.171875 8.296875 
L 55.171875 0 
L 9.8125 0 
z
" id="DejaVuSans-76"/>
      </defs>
      <use xlink:href="#DejaVuSans-77"/>
      <use x="86.279297" xlink:href="#DejaVuSans-66"/>
      <use x="154.882812" xlink:href="#DejaVuSans-45"/>
      <use x="190.966797" xlink:href="#DejaVuSans-77"/>
      <use x="277.246094" xlink:href="#DejaVuSans-84"/>
      <use x="338.330078" xlink:href="#DejaVuSans-76"/>
      <use x="394.042969" xlink:href="#DejaVuSans-50"/>
     </g>
    </g>
    <g id="line2d_24">
     <path d="M 922.265 391.203525 
L 970.265 391.203525 
" style="fill:none;stroke:#8172b3;stroke-linecap:round;stroke-width:4;"/>
    </g>
    <g id="line2d_25">
     <g>
      <use style="fill:#8172b3;stroke:#8172b3;" x="946.265" xlink:href="#m073d242a05" y="391.203525"/>
     </g>
    </g>
    <g id="text_18">
     <!-- SE-ResNet-MTL2 -->
     <g style="fill:#262626;" transform="translate(989.465 399.603525)scale(0.24 -0.24)">
      <defs>
       <path d="M 9.8125 72.90625 
L 55.90625 72.90625 
L 55.90625 64.59375 
L 19.671875 64.59375 
L 19.671875 43.015625 
L 54.390625 43.015625 
L 54.390625 34.71875 
L 19.671875 34.71875 
L 19.671875 8.296875 
L 56.78125 8.296875 
L 56.78125 0 
L 9.8125 0 
z
" id="DejaVuSans-69"/>
       <path d="M 44.390625 34.1875 
Q 47.5625 33.109375 50.5625 29.59375 
Q 53.5625 26.078125 56.59375 19.921875 
L 66.609375 0 
L 56 0 
L 46.6875 18.703125 
Q 43.0625 26.03125 39.671875 28.421875 
Q 36.28125 30.8125 30.421875 30.8125 
L 19.671875 30.8125 
L 19.671875 0 
L 9.8125 0 
L 9.8125 72.90625 
L 32.078125 72.90625 
Q 44.578125 72.90625 50.734375 67.671875 
Q 56.890625 62.453125 56.890625 51.90625 
Q 56.890625 45.015625 53.6875 40.46875 
Q 50.484375 35.9375 44.390625 34.1875 
z
M 19.671875 64.796875 
L 19.671875 38.921875 
L 32.078125 38.921875 
Q 39.203125 38.921875 42.84375 42.21875 
Q 46.484375 45.515625 46.484375 51.90625 
Q 46.484375 58.296875 42.84375 61.546875 
Q 39.203125 64.796875 32.078125 64.796875 
z
" id="DejaVuSans-82"/>
       <path d="M 44.28125 53.078125 
L 44.28125 44.578125 
Q 40.484375 46.53125 36.375 47.5 
Q 32.28125 48.484375 27.875 48.484375 
Q 21.1875 48.484375 17.84375 46.4375 
Q 14.5 44.390625 14.5 40.28125 
Q 14.5 37.15625 16.890625 35.375 
Q 19.28125 33.59375 26.515625 31.984375 
L 29.59375 31.296875 
Q 39.15625 29.25 43.1875 25.515625 
Q 47.21875 21.78125 47.21875 15.09375 
Q 47.21875 7.46875 41.1875 3.015625 
Q 35.15625 -1.421875 24.609375 -1.421875 
Q 20.21875 -1.421875 15.453125 -0.5625 
Q 10.6875 0.296875 5.421875 2 
L 5.421875 11.28125 
Q 10.40625 8.6875 15.234375 7.390625 
Q 20.0625 6.109375 24.8125 6.109375 
Q 31.15625 6.109375 34.5625 8.28125 
Q 37.984375 10.453125 37.984375 14.40625 
Q 37.984375 18.0625 35.515625 20.015625 
Q 33.0625 21.96875 24.703125 23.78125 
L 21.578125 24.515625 
Q 13.234375 26.265625 9.515625 29.90625 
Q 5.8125 33.546875 5.8125 39.890625 
Q 5.8125 47.609375 11.28125 51.796875 
Q 16.75 56 26.8125 56 
Q 31.78125 56 36.171875 55.265625 
Q 40.578125 54.546875 44.28125 53.078125 
z
" id="DejaVuSans-115"/>
       <path d="M 9.8125 72.90625 
L 23.09375 72.90625 
L 55.421875 11.921875 
L 55.421875 72.90625 
L 64.984375 72.90625 
L 64.984375 0 
L 51.703125 0 
L 19.390625 60.984375 
L 19.390625 0 
L 9.8125 0 
z
" id="DejaVuSans-78"/>
      </defs>
      <use xlink:href="#DejaVuSans-83"/>
      <use x="63.476562" xlink:href="#DejaVuSans-69"/>
      <use x="126.660156" xlink:href="#DejaVuSans-45"/>
      <use x="162.744141" xlink:href="#DejaVuSans-82"/>
      <use x="227.726562" xlink:href="#DejaVuSans-101"/>
      <use x="289.25" xlink:href="#DejaVuSans-115"/>
      <use x="341.349609" xlink:href="#DejaVuSans-78"/>
      <use x="416.154297" xlink:href="#DejaVuSans-101"/>
      <use x="477.677734" xlink:href="#DejaVuSans-116"/>
      <use x="516.886719" xlink:href="#DejaVuSans-45"/>
      <use x="552.970703" xlink:href="#DejaVuSans-77"/>
      <use x="639.25" xlink:href="#DejaVuSans-84"/>
      <use x="700.333984" xlink:href="#DejaVuSans-76"/>
      <use x="756.046875" xlink:href="#DejaVuSans-50"/>
     </g>
    </g>
    <g id="line2d_26">
     <path d="M 922.265 426.431025 
L 970.265 426.431025 
" style="fill:none;stroke:#937860;stroke-linecap:round;stroke-width:4;"/>
    </g>
    <g id="line2d_27">
     <g>
      <use style="fill:#937860;stroke:#937860;stroke-linejoin:bevel;" x="946.265" xlink:href="#m21252a14ba" y="426.431025"/>
     </g>
    </g>
    <g id="text_19">
     <!-- ResNet-NC-MTL2 -->
     <g style="fill:#262626;" transform="translate(989.465 434.831025)scale(0.24 -0.24)">
      <defs>
       <path d="M 64.40625 67.28125 
L 64.40625 56.890625 
Q 59.421875 61.53125 53.78125 63.8125 
Q 48.140625 66.109375 41.796875 66.109375 
Q 29.296875 66.109375 22.65625 58.46875 
Q 16.015625 50.828125 16.015625 36.375 
Q 16.015625 21.96875 22.65625 14.328125 
Q 29.296875 6.6875 41.796875 6.6875 
Q 48.140625 6.6875 53.78125 8.984375 
Q 59.421875 11.28125 64.40625 15.921875 
L 64.40625 5.609375 
Q 59.234375 2.09375 53.4375 0.328125 
Q 47.65625 -1.421875 41.21875 -1.421875 
Q 24.65625 -1.421875 15.125 8.703125 
Q 5.609375 18.84375 5.609375 36.375 
Q 5.609375 53.953125 15.125 64.078125 
Q 24.65625 74.21875 41.21875 74.21875 
Q 47.75 74.21875 53.53125 72.484375 
Q 59.328125 70.75 64.40625 67.28125 
z
" id="DejaVuSans-67"/>
      </defs>
      <use xlink:href="#DejaVuSans-82"/>
      <use x="64.982422" xlink:href="#DejaVuSans-101"/>
      <use x="126.505859" xlink:href="#DejaVuSans-115"/>
      <use x="178.605469" xlink:href="#DejaVuSans-78"/>
      <use x="253.410156" xlink:href="#DejaVuSans-101"/>
      <use x="314.933594" xlink:href="#DejaVuSans-116"/>
      <use x="354.142578" xlink:href="#DejaVuSans-45"/>
      <use x="390.226562" xlink:href="#DejaVuSans-78"/>
      <use x="465.03125" xlink:href="#DejaVuSans-67"/>
      <use x="534.855469" xlink:href="#DejaVuSans-45"/>
      <use x="570.939453" xlink:href="#DejaVuSans-77"/>
      <use x="657.21875" xlink:href="#DejaVuSans-84"/>
      <use x="718.302734" xlink:href="#DejaVuSans-76"/>
      <use x="774.015625" xlink:href="#DejaVuSans-50"/>
     </g>
    </g>
    <g id="line2d_28">
     <path d="M 922.265 461.658525 
L 970.265 461.658525 
" style="fill:none;stroke:#c44e52;stroke-linecap:round;stroke-width:4;"/>
    </g>
    <g id="line2d_29">
     <g>
      <use style="fill:#c44e52;stroke:#c44e52;stroke-linejoin:miter;" x="946.265" xlink:href="#m6c1dd41579" y="461.658525"/>
     </g>
    </g>
    <g id="text_20">
     <!-- TResNetF-MTL2 -->
     <g style="fill:#262626;" transform="translate(989.465 470.058525)scale(0.24 -0.24)">
      <defs>
       <path d="M 9.8125 72.90625 
L 51.703125 72.90625 
L 51.703125 64.59375 
L 19.671875 64.59375 
L 19.671875 43.109375 
L 48.578125 43.109375 
L 48.578125 34.8125 
L 19.671875 34.8125 
L 19.671875 0 
L 9.8125 0 
z
" id="DejaVuSans-70"/>
      </defs>
      <use xlink:href="#DejaVuSans-84"/>
      <use x="61.083984" xlink:href="#DejaVuSans-82"/>
      <use x="126.066406" xlink:href="#DejaVuSans-101"/>
      <use x="187.589844" xlink:href="#DejaVuSans-115"/>
      <use x="239.689453" xlink:href="#DejaVuSans-78"/>
      <use x="314.494141" xlink:href="#DejaVuSans-101"/>
      <use x="376.017578" xlink:href="#DejaVuSans-116"/>
      <use x="415.226562" xlink:href="#DejaVuSans-70"/>
      <use x="472.746094" xlink:href="#DejaVuSans-45"/>
      <use x="508.830078" xlink:href="#DejaVuSans-77"/>
      <use x="595.109375" xlink:href="#DejaVuSans-84"/>
      <use x="656.193359" xlink:href="#DejaVuSans-76"/>
      <use x="711.90625" xlink:href="#DejaVuSans-50"/>
     </g>
    </g>
    <g id="line2d_30">
     <path d="M 922.265 496.886025 
L 970.265 496.886025 
" style="fill:none;stroke:#55a868;stroke-linecap:round;stroke-width:4;"/>
    </g>
    <g id="line2d_31">
     <g>
      <use style="fill:#55a868;stroke:#55a868;stroke-linejoin:miter;" x="946.265" xlink:href="#mc7b6221330" y="496.886025"/>
     </g>
    </g>
    <g id="text_21">
     <!-- TResNetS-MTL2 -->
     <g style="fill:#262626;" transform="translate(989.465 505.286025)scale(0.24 -0.24)">
      <use xlink:href="#DejaVuSans-84"/>
      <use x="61.083984" xlink:href="#DejaVuSans-82"/>
      <use x="126.066406" xlink:href="#DejaVuSans-101"/>
      <use x="187.589844" xlink:href="#DejaVuSans-115"/>
      <use x="239.689453" xlink:href="#DejaVuSans-78"/>
      <use x="314.494141" xlink:href="#DejaVuSans-101"/>
      <use x="376.017578" xlink:href="#DejaVuSans-116"/>
      <use x="415.226562" xlink:href="#DejaVuSans-83"/>
      <use x="478.703125" xlink:href="#DejaVuSans-45"/>
      <use x="514.787109" xlink:href="#DejaVuSans-77"/>
      <use x="601.066406" xlink:href="#DejaVuSans-84"/>
      <use x="662.150391" xlink:href="#DejaVuSans-76"/>
      <use x="717.863281" xlink:href="#DejaVuSans-50"/>
     </g>
    </g>
    <g id="line2d_32">
     <path d="M 922.265 532.113525 
L 970.265 532.113525 
" style="fill:none;stroke:#da8bc3;stroke-linecap:round;stroke-width:4;"/>
    </g>
    <g id="line2d_33">
     <g>
      <use style="fill:#da8bc3;stroke:#da8bc3;stroke-linejoin:miter;" x="946.265" xlink:href="#m1c147a9dd5" y="532.113525"/>
     </g>
    </g>
    <g id="text_22">
     <!-- hf-wav2vec2-MTL2 -->
     <g style="fill:#262626;" transform="translate(989.465 540.513525)scale(0.24 -0.24)">
      <defs>
       <path d="M 37.109375 75.984375 
L 37.109375 68.5 
L 28.515625 68.5 
Q 23.6875 68.5 21.796875 66.546875 
Q 19.921875 64.59375 19.921875 59.515625 
L 19.921875 54.6875 
L 34.71875 54.6875 
L 34.71875 47.703125 
L 19.921875 47.703125 
L 19.921875 0 
L 10.890625 0 
L 10.890625 47.703125 
L 2.296875 47.703125 
L 2.296875 54.6875 
L 10.890625 54.6875 
L 10.890625 58.5 
Q 10.890625 67.625 15.140625 71.796875 
Q 19.390625 75.984375 28.609375 75.984375 
z
" id="DejaVuSans-102"/>
       <path d="M 4.203125 54.6875 
L 13.1875 54.6875 
L 24.421875 12.015625 
L 35.59375 54.6875 
L 46.1875 54.6875 
L 57.421875 12.015625 
L 68.609375 54.6875 
L 77.59375 54.6875 
L 63.28125 0 
L 52.6875 0 
L 40.921875 44.828125 
L 29.109375 0 
L 18.5 0 
z
" id="DejaVuSans-119"/>
       <path d="M 2.984375 54.6875 
L 12.5 54.6875 
L 29.59375 8.796875 
L 46.6875 54.6875 
L 56.203125 54.6875 
L 35.6875 0 
L 23.484375 0 
z
" id="DejaVuSans-118"/>
      </defs>
      <use xlink:href="#DejaVuSans-104"/>
      <use x="63.378906" xlink:href="#DejaVuSans-102"/>
      <use x="93.083984" xlink:href="#DejaVuSans-45"/>
      <use x="129.167969" xlink:href="#DejaVuSans-119"/>
      <use x="210.955078" xlink:href="#DejaVuSans-97"/>
      <use x="272.234375" xlink:href="#DejaVuSans-118"/>
      <use x="331.414062" xlink:href="#DejaVuSans-50"/>
      <use x="395.037109" xlink:href="#DejaVuSans-118"/>
      <use x="454.216797" xlink:href="#DejaVuSans-101"/>
      <use x="515.740234" xlink:href="#DejaVuSans-99"/>
      <use x="570.720703" xlink:href="#DejaVuSans-50"/>
      <use x="634.34375" xlink:href="#DejaVuSans-45"/>
      <use x="670.427734" xlink:href="#DejaVuSans-77"/>
      <use x="756.707031" xlink:href="#DejaVuSans-84"/>
      <use x="817.791016" xlink:href="#DejaVuSans-76"/>
      <use x="873.503906" xlink:href="#DejaVuSans-50"/>
     </g>
    </g>
    <g id="line2d_34">
     <path d="M 922.265 567.341025 
L 970.265 567.341025 
" style="fill:none;stroke:#4c72b0;stroke-linecap:round;stroke-width:4;"/>
    </g>
    <g id="line2d_35">
     <g>
      <use style="fill:#4c72b0;stroke:#4c72b0;stroke-linejoin:miter;" x="946.265" xlink:href="#m5f5cabbe6d" y="567.341025"/>
     </g>
    </g>
    <g id="text_23">
     <!-- ta-wav2vec2-MTL2 -->
     <g style="fill:#262626;" transform="translate(989.465 575.741025)scale(0.24 -0.24)">
      <use xlink:href="#DejaVuSans-116"/>
      <use x="39.208984" xlink:href="#DejaVuSans-97"/>
      <use x="100.488281" xlink:href="#DejaVuSans-45"/>
      <use x="136.572266" xlink:href="#DejaVuSans-119"/>
      <use x="218.359375" xlink:href="#DejaVuSans-97"/>
      <use x="279.638672" xlink:href="#DejaVuSans-118"/>
      <use x="338.818359" xlink:href="#DejaVuSans-50"/>
      <use x="402.441406" xlink:href="#DejaVuSans-118"/>
      <use x="461.621094" xlink:href="#DejaVuSans-101"/>
      <use x="523.144531" xlink:href="#DejaVuSans-99"/>
      <use x="578.125" xlink:href="#DejaVuSans-50"/>
      <use x="641.748047" xlink:href="#DejaVuSans-45"/>
      <use x="677.832031" xlink:href="#DejaVuSans-77"/>
      <use x="764.111328" xlink:href="#DejaVuSans-84"/>
      <use x="825.195312" xlink:href="#DejaVuSans-76"/>
      <use x="880.908203" xlink:href="#DejaVuSans-50"/>
     </g>
    </g>
   </g>
  </g>
 </g>
 <defs>
  <clipPath id="p6069d66fbd">
   <rect height="652.32" width="1116" x="121.75625" y="17.949375"/>
  </clipPath>
 </defs>
</svg>
